  0
SECTION
  2
HEADER
  9
$ACADVER
  1
AC1014
  9
$ACADMAINTVER
 70
     9
  9
$DWGCODEPAGE
  3
ANSI_1252
  9
$INSBASE
 10
0.0
 20
0.0
 30
0.0
  9
$EXTMIN
 10
-0.7417068001186431
 20
-3.342293521476834
 30
0.0
  9
$EXTMAX
 10
154.1175718011065
 20
50.74177435128504
 30
0.0
  9
$LIMMIN
 10
0.0
 20
0.0
  9
$LIMMAX
 10
17.0
 20
11.0
  9
$ORTHOMODE
 70
     0
  9
$REGENMODE
 70
     1
  9
$FILLMODE
 70
     1
  9
$QTEXTMODE
 70
     0
  9
$MIRRTEXT
 70
     1
  9
$DRAGMODE
 70
     2
  9
$LTSCALE
 40
1.0
  9
$OSMODE
 70
   511
  9
$ATTMODE
 70
     1
  9
$TEXTSIZE
 40
0.125
  9
$TRACEWID
 40
0.05
  9
$TEXTSTYLE
  7
STANDARD
  9
$CLAYER
  8
FORMAT
  9
$CELTYPE
  6
BYLAYER
  9
$CECOLOR
 62
   256
  9
$CELTSCALE
 40
1.0
  9
$DELOBJ
 70
     1
  9
$DISPSILH
 70
     0
  9
$DIMSCALE
 40
1.0
  9
$DIMASZ
 40
0.13
  9
$DIMEXO
 40
0.05
  9
$DIMDLI
 40
0.38
  9
$DIMRND
 40
0.0
  9
$DIMDLE
 40
0.0
  9
$DIMEXE
 40
0.125
  9
$DIMTP
 40
0.0
  9
$DIMTM
 40
0.0
  9
$DIMTXT
 40
0.125
  9
$DIMCEN
 40
0.09
  9
$DIMTSZ
 40
0.0
  9
$DIMTOL
 70
     0
  9
$DIMLIM
 70
     0
  9
$DIMTIH
 70
     1
  9
$DIMTOH
 70
     1
  9
$DIMSE1
 70
     0
  9
$DIMSE2
 70
     0
  9
$DIMTAD
 70
     0
  9
$DIMZIN
 70
     0
  9
$DIMBLK
  1

  9
$DIMASO
 70
     1
  9
$DIMSHO
 70
     1
  9
$DIMPOST
  1

  9
$DIMAPOST
  1

  9
$DIMALT
 70
     0
  9
$DIMALTD
 70
     2
  9
$DIMALTF
 40
25.4
  9
$DIMLFAC
 40
2.0
  9
$DIMTOFL
 70
     0
  9
$DIMTVP
 40
0.0
  9
$DIMTIX
 70
     0
  9
$DIMSOXD
 70
     0
  9
$DIMSAH
 70
     0
  9
$DIMBLK1
  1

  9
$DIMBLK2
  1

  9
$DIMSTYLE
  2
STANDARD
  9
$DIMCLRD
 70
     0
  9
$DIMCLRE
 70
     0
  9
$DIMCLRT
 70
     0
  9
$DIMTFAC
 40
1.0
  9
$DIMGAP
 40
0.06
  9
$DIMJUST
 70
     0
  9
$DIMSD1
 70
     0
  9
$DIMSD2
 70
     0
  9
$DIMTOLJ
 70
     1
  9
$DIMTZIN
 70
     0
  9
$DIMALTZ
 70
     0
  9
$DIMALTTZ
 70
     0
  9
$DIMFIT
 70
     5
  9
$DIMUPT
 70
     0
  9
$DIMUNIT
 70
     2
  9
$DIMDEC
 70
     2
  9
$DIMTDEC
 70
     2
  9
$DIMALTU
 70
     2
  9
$DIMALTTD
 70
     2
  9
$DIMTXSTY
  7
STANDARD
  9
$DIMAUNIT
 70
     0
  9
$LUNITS
 70
     2
  9
$LUPREC
 70
     2
  9
$SKETCHINC
 40
0.1
  9
$FILLETRAD
 40
0.5
  9
$AUNITS
 70
     0
  9
$AUPREC
 70
     2
  9
$MENU
  1
.
  9
$ELEVATION
 40
0.0
  9
$PELEVATION
 40
0.0
  9
$THICKNESS
 40
0.0
  9
$LIMCHECK
 70
     0
  9
$CHAMFERA
 40
0.5
  9
$CHAMFERB
 40
0.5
  9
$CHAMFERC
 40
1.0
  9
$CHAMFERD
 40
0.0
  9
$SKPOLY
 70
     0
  9
$TDCREATE
 40
2457232.193938253
  9
$TDUPDATE
 40
2457395.837044919
  9
$TDINDWG
 40
0.0085263194
  9
$TDUSRTIMER
 40
2457396.045093241
  9
$USRTIMER
 70
     1
  9
$ANGBASE
 50
0.0
  9
$ANGDIR
 70
     0
  9
$PDMODE
 70
     0
  9
$PDSIZE
 40
-1.0
  9
$PLINEWID
 40
0.0
  9
$COORDS
 70
     1
  9
$SPLFRAME
 70
     0
  9
$SPLINETYPE
 70
     6
  9
$SPLINESEGS
 70
     8
  9
$ATTDIA
 70
     0
  9
$ATTREQ
 70
     1
  9
$HANDLING
 70
     1
  9
$HANDSEED
  5
421
  9
$SURFTAB1
 70
     6
  9
$SURFTAB2
 70
     6
  9
$SURFTYPE
 70
     6
  9
$SURFU
 70
     6
  9
$SURFV
 70
     6
  9
$UCSNAME
  2

  9
$UCSORG
 10
0.0
 20
0.0
 30
0.0
  9
$UCSXDIR
 10
1.0
 20
0.0
 30
0.0
  9
$UCSYDIR
 10
0.0
 20
1.0
 30
0.0
  9
$PUCSNAME
  2

  9
$PUCSORG
 10
0.0
 20
0.0
 30
0.0
  9
$PUCSXDIR
 10
1.0
 20
0.0
 30
0.0
  9
$PUCSYDIR
 10
0.0
 20
1.0
 30
0.0
  9
$USERI1
 70
     0
  9
$USERI2
 70
     0
  9
$USERI3
 70
     0
  9
$USERI4
 70
     0
  9
$USERI5
 70
     0
  9
$USERR1
 40
0.0
  9
$USERR2
 40
0.0
  9
$USERR3
 40
0.0
  9
$USERR4
 40
0.0
  9
$USERR5
 40
0.0
  9
$WORLDVIEW
 70
     1
  9
$SHADEDGE
 70
     3
  9
$SHADEDIF
 70
    70
  9
$TILEMODE
 70
     1
  9
$MAXACTVP
 70
    64
  9
$PINSBASE
 10
0.0
 20
0.0
 30
0.0
  9
$PLIMCHECK
 70
     0
  9
$PEXTMIN
 10
1.05
 20
0.6999999999999997
 30
0.0
  9
$PEXTMAX
 10
9.45
 20
6.300000000000001
 30
0.0
  9
$PLIMMIN
 10
0.0
 20
0.0
  9
$PLIMMAX
 10
0.0
 20
0.0
  9
$UNITMODE
 70
     0
  9
$VISRETAIN
 70
     1
  9
$PLINEGEN
 70
     0
  9
$PSLTSCALE
 70
     1
  9
$TREEDEPTH
 70
  3020
  9
$PICKSTYLE
 70
     1
  9
$CMLSTYLE
  2
STANDARD
  9
$CMLJUST
 70
     0
  9
$CMLSCALE
 40
1.0
  9
$PROXYGRAPHICS
 70
     1
  9
$MEASUREMENT
 70
     0
  0
ENDSEC
  0
SECTION
  2
CLASSES
  0
CLASS
  1
ACDBDICTIONARYWDFLT
  2
AcDbDictionaryWithDefault
  3
ObjectDBX Classes
 90
        0
280
     0
281
     0
  0
CLASS
  1
VISUALSTYLE
  2
AcDbVisualStyle
  3
ObjectDBX Classes
 90
     4095
280
     0
281
     0
  0
CLASS
  1
MATERIAL
  2
AcDbMaterial
  3
ObjectDBX Classes
 90
     1153
280
     0
281
     0
  0
CLASS
  1
XRECORD
  2
AcDbXrecord
  3
ObjectDBX Classes
 90
        0
280
     0
281
     0
  0
CLASS
  1
SCALE
  2
AcDbScale
  3
ObjectDBX Classes
 90
     1153
280
     0
281
     0
  0
CLASS
  1
TABLESTYLE
  2
AcDbTableStyle
  3
ObjectDBX Classes
 90
     4095
280
     0
281
     0
  0
CLASS
  1
MLEADERSTYLE
  2
AcDbMLeaderStyle
  3
ACDB_MLEADERSTYLE_CLASS
 90
     4095
280
     0
281
     0
  0
CLASS
  1
SUN
  2
AcDbSun
  3
SCENEOE
 90
     1153
280
     0
281
     0
  0
CLASS
  1
RASTERVARIABLES
  2
AcDbRasterVariables
  3
ISM
 90
        0
280
     0
281
     0
  0
CLASS
  1
DICTIONARYVAR
  2
AcDbDictionaryVar
  3
ObjectDBX Classes
 90
        0
280
     0
281
     0
  0
CLASS
  1
LWPOLYLINE
  2
AcDbPolyline
  3
ObjectDBX Classes
 90
        0
280
     0
281
     1
  0
CLASS
  1
HATCH
  2
AcDbHatch
  3
ObjectDBX Classes
 90
        0
280
     0
281
     1
  0
CLASS
  1
DIMASSOC
  2
AcDbDimAssoc
  3
"AcDbDimAssoc|Product Desc:     AcDim ARX App For Dimension|Company:          Autodesk, Inc.|WEB Address:      www.autodesk.com"
 90
        0
280
     0
281
     0
  0
ENDSEC
  0
SECTION
  2
TABLES
  0
TABLE
  2
VPORT
  5
8
330
0
100
AcDbSymbolTable
 70
     1
  0
VPORT
  5
29
330
8
100
AcDbSymbolTableRecord
100
AcDbViewportTableRecord
  2
*ACTIVE
 70
     0
 10
0.0
 20
0.0
 11
1.0
 21
1.0
 12
149.4050752046637
 22
41.99443880716159
 13
0.0
 23
0.0
 14
0.5
 24
0.5
 15
0.5
 25
0.5
 16
0.0
 26
0.0
 36
1.0
 17
0.0
 27
0.0
 37
0.0
 40
175.0241450714871
 41
2.615023474178404
 42
50.0
 43
0.0
 44
0.0
 50
0.0
 51
0.0
 71
    16
 72
  2000
 73
     1
 74
     3
 75
     0
 76
     0
 77
     0
 78
     0
  0
ENDTAB
  0
TABLE
  2
LTYPE
  5
5
330
0
100
AcDbSymbolTable
 70
     8
  0
LTYPE
  5
14
330
5
100
AcDbSymbolTableRecord
100
AcDbLinetypeTableRecord
  2
BYBLOCK
 70
     0
  3

 72
    65
 73
     0
 40
0.0
  0
LTYPE
  5
15
330
5
100
AcDbSymbolTableRecord
100
AcDbLinetypeTableRecord
  2
BYLAYER
 70
     0
  3

 72
    65
 73
     0
 40
0.0
  0
LTYPE
  5
16
330
5
100
AcDbSymbolTableRecord
100
AcDbLinetypeTableRecord
  2
CONTINUOUS
 70
     0
  3
Solid line
 72
    65
 73
     0
 40
0.0
  0
LTYPE
  5
3F
330
5
100
AcDbSymbolTableRecord
100
AcDbLinetypeTableRecord
  2
SLD-SOLID
 70
     0
  3
SolidWorks Line Style
 72
    65
 73
     0
 40
0.0
  0
LTYPE
  5
40
330
5
100
AcDbSymbolTableRecord
100
AcDbLinetypeTableRecord
  2
SLD-DASHED
 70
     0
  3
SolidWorks Line Style
 72
    65
 73
     2
 40
0.075
 49
0.05
 74
     0
 49
-0.025
 74
     0
  0
LTYPE
  5
41
330
5
100
AcDbSymbolTableRecord
100
AcDbLinetypeTableRecord
  2
SLD-PHANTOM
 70
     0
  3
SolidWorks Line Style
 72
    65
 73
     6
 40
0.5
 49
0.25
 74
     0
 49
-0.05
 74
     0
 49
0.05
 74
     0
 49
-0.05
 74
     0
 49
0.05
 74
     0
 49
-0.05
 74
     0
  0
LTYPE
  5
42
330
5
100
AcDbSymbolTableRecord
100
AcDbLinetypeTableRecord
  2
SLD-CHAIN
 70
     0
  3
SolidWorks Line Style
 72
    65
 73
     4
 40
0.4
 49
0.25
 74
     0
 49
-0.05
 74
     0
 49
0.05
 74
     0
 49
-0.05
 74
     0
  0
LTYPE
  5
43
330
5
100
AcDbSymbolTableRecord
100
AcDbLinetypeTableRecord
  2
SLD-CENTER
 70
     0
  3
SolidWorks Line Style
 72
    65
 73
     4
 40
0.75
 49
0.6
 74
     0
 49
-0.05
 74
     0
 49
0.05
 74
     0
 49
-0.05
 74
     0
  0
LTYPE
  5
44
330
5
100
AcDbSymbolTableRecord
100
AcDbLinetypeTableRecord
  2
SLD-STITCH
 70
     0
  3
SolidWorks Line Style
 72
    65
 73
     2
 40
0.025
 49
0.0
 74
     0
 49
-0.025
 74
     0
  0
LTYPE
  5
45
330
5
100
AcDbSymbolTableRecord
100
AcDbLinetypeTableRecord
  2
SLD-THIN-THICK-CHAIN
 70
     0
  3
SolidWorks Line Style
 72
    65
 73
     4
 40
0.4
 49
0.25
 74
     0
 49
-0.05
 74
     0
 49
0.05
 74
     0
 49
-0.05
 74
     0
  0
ENDTAB
  0
TABLE
  2
LAYER
  5
2
102
{ACAD_XDICTIONARY
360
E1
102
}
330
0
100
AcDbSymbolTable
 70
     3
  0
LAYER
  5
10
330
2
100
AcDbSymbolTableRecord
100
AcDbLayerTableRecord
  2
0
 70
     0
 62
     7
  6
CONTINUOUS
  0
LAYER
  5
46
330
2
100
AcDbSymbolTableRecord
100
AcDbLayerTableRecord
  2
FORMAT
 70
     0
 62
     7
  6
SLD-SOLID
  0
LAYER
  5
30C
330
2
100
AcDbSymbolTableRecord
100
AcDbLayerTableRecord
  2
DEFPOINTS
 70
     0
 62
     7
  6
CONTINUOUS
  0
ENDTAB
  0
TABLE
  2
STYLE
  5
3
330
0
100
AcDbSymbolTable
 70
     1
  0
STYLE
  5
11
330
3
100
AcDbSymbolTableRecord
100
AcDbTextStyleTableRecord
  2
STANDARD
 70
     0
 40
0.0
 41
1.0
 50
0.0
 71
     0
 42
0.125
  3
txt
  4

  0
ENDTAB
  0
TABLE
  2
VIEW
  5
6
330
0
100
AcDbSymbolTable
 70
     0
  0
ENDTAB
  0
TABLE
  2
UCS
  5
7
330
0
100
AcDbSymbolTable
 70
     0
  0
ENDTAB
  0
TABLE
  2
APPID
  5
9
330
0
100
AcDbSymbolTable
 70
     1
  0
APPID
  5
12
330
9
100
AcDbSymbolTableRecord
100
AcDbRegAppTableRecord
  2
ACAD
 70
     0
  0
ENDTAB
  0
TABLE
  2
DIMSTYLE
  5
A
330
0
100
AcDbSymbolTable
 70
     1
  0
DIMSTYLE
105
27
330
A
100
AcDbSymbolTableRecord
100
AcDbDimStyleTableRecord
  2
STANDARD
 70
     0
  3

  4

  5

  6

  7

 40
1.0
 41
0.18
 42
0.0625
 43
0.38
 44
0.18
 45
0.0
 46
0.0
 47
0.0
 48
0.0
140
0.18
141
0.09
142
0.0
143
25.4
144
1.0
145
0.0
146
1.0
147
0.09
 71
     0
 72
     0
 73
     1
 74
     1
 75
     0
 76
     0
 77
     0
 78
     0
170
     0
171
     2
172
     0
173
     0
174
     0
175
     0
176
     0
177
     0
178
     0
270
     2
271
     4
272
     4
273
     2
274
     2
340
11
275
     0
280
     0
281
     0
282
     0
283
     1
284
     0
285
     0
286
     0
287
     3
288
     0
  0
ENDTAB
  0
TABLE
  2
BLOCK_RECORD
  5
1
330
0
100
AcDbSymbolTable
 70
     6
  0
BLOCK_RECORD
  5
1F
330
1
100
AcDbSymbolTableRecord
100
AcDbBlockTableRecord
  2
*MODEL_SPACE
  0
BLOCK_RECORD
  5
1B
330
1
100
AcDbSymbolTableRecord
100
AcDbBlockTableRecord
  2
*PAPER_SPACE
  0
BLOCK_RECORD
  5
23
330
1
100
AcDbSymbolTableRecord
100
AcDbBlockTableRecord
  2
*PAPER_SPACE0
  0
BLOCK_RECORD
  5
321
330
1
100
AcDbSymbolTableRecord
100
AcDbBlockTableRecord
  2
*D1
  0
BLOCK_RECORD
  5
34C
330
1
100
AcDbSymbolTableRecord
100
AcDbBlockTableRecord
  2
*D2
  0
BLOCK_RECORD
  5
35C
330
1
100
AcDbSymbolTableRecord
100
AcDbBlockTableRecord
  2
*D3
  0
BLOCK_RECORD
  5
371
330
1
100
AcDbSymbolTableRecord
100
AcDbBlockTableRecord
  2
*D4
  0
BLOCK_RECORD
  5
3CB
330
1
100
AcDbSymbolTableRecord
100
AcDbBlockTableRecord
  2
*D5
  0
ENDTAB
  0
ENDSEC
  0
SECTION
  2
BLOCKS
  0
BLOCK
  5
20
330
1F
100
AcDbEntity
  8
0
100
AcDbBlockBegin
  2
*MODEL_SPACE
 70
     0
 10
0.0
 20
0.0
 30
0.0
  3
*MODEL_SPACE
  1

  0
ENDBLK
  5
21
330
1F
100
AcDbEntity
  8
0
100
AcDbBlockEnd
  0
BLOCK
  5
1C
330
1B
100
AcDbEntity
 67
     1
  8
0
100
AcDbBlockBegin
  2
*PAPER_SPACE
 70
     0
 10
0.0
 20
0.0
 30
0.0
  3
*PAPER_SPACE
  1

  0
ENDBLK
  5
1D
330
1B
100
AcDbEntity
 67
     1
  8
0
100
AcDbBlockEnd
  0
BLOCK
  5
24
330
23
100
AcDbEntity
  8
0
100
AcDbBlockBegin
  2
*PAPER_SPACE0
 70
     0
 10
0.0
 20
0.0
 30
0.0
  3
*PAPER_SPACE0
  1
*PAPER_SPACE0
  0
ENDBLK
  5
25
330
23
100
AcDbEntity
  8
0
100
AcDbBlockEnd
  0
BLOCK
  5
322
330
321
100
AcDbEntity
  8
0
100
AcDbBlockBegin
  2
*D1
 70
     1
 10
0.0
 20
0.0
 30
0.0
  3
*D1
  1
*D1
  0
LINE
  5
324
330
321
100
AcDbEntity
  8
FORMAT
 62
     0
100
AcDbLine
 10
5.792873043073425
 20
4.839348722412334
 30
0.0
 11
5.792873043073425
 21
5.98719975296641
 31
0.0
  0
LINE
  5
325
330
321
100
AcDbEntity
  8
FORMAT
 62
     0
100
AcDbLine
 10
11.88289252057342
 20
4.839348722412334
 30
0.0
 11
11.88289252057342
 21
5.98719975296641
 31
0.0
  0
LINE
  5
326
330
321
100
AcDbEntity
  8
FORMAT
 62
     0
100
AcDbLine
 10
5.922873043073425
 20
5.86219975296641
 30
0.0
 11
8.569549448490088
 21
5.86219975296641
 31
0.0
  0
LINE
  5
327
330
321
100
AcDbEntity
  8
FORMAT
 62
     0
100
AcDbLine
 10
11.75289252057342
 20
5.86219975296641
 30
0.0
 11
9.106216115156757
 21
5.86219975296641
 31
0.0
  0
SOLID
  5
328
330
321
100
AcDbEntity
  8
FORMAT
 62
     0
100
AcDbTrace
 10
5.922873043073425
 20
5.883866419633077
 30
0.0
 11
5.922873043073425
 21
5.840533086299744
 31
0.0
 12
5.792873043073425
 22
5.86219975296641
 32
0.0
 13
5.792873043073425
 23
5.86219975296641
 33
0.0
  0
SOLID
  5
329
330
321
100
AcDbEntity
  8
FORMAT
 62
     0
100
AcDbTrace
 10
11.75289252057342
 20
5.840533086299744
 30
0.0
 11
11.75289252057342
 21
5.883866419633077
 31
0.0
 12
11.88289252057342
 22
5.86219975296641
 32
0.0
 13
11.88289252057342
 23
5.86219975296641
 33
0.0
  0
MTEXT
  5
32A
330
321
100
AcDbEntity
  8
FORMAT
 62
     0
100
AcDbMText
 10
8.837882781823422
 20
5.86219975296641
 30
0.0
 40
0.125
 41
0.0
 71
     5
 72
     1
  1
\A1;12.18
  0
POINT
  5
32B
330
321
100
AcDbEntity
  8
DEFPOINTS
 62
     0
100
AcDbPoint
 10
5.792873043073425
 20
4.789348722412334
 30
0.0
  0
POINT
  5
32C
330
321
100
AcDbEntity
  8
DEFPOINTS
 62
     0
100
AcDbPoint
 10
11.88289252057342
 20
4.789348722412334
 30
0.0
  0
POINT
  5
32D
330
321
100
AcDbEntity
  8
DEFPOINTS
 62
     0
100
AcDbPoint
 10
11.88289252057342
 20
5.86219975296641
 30
0.0
  0
ENDBLK
  5
323
330
321
100
AcDbEntity
  8
0
100
AcDbBlockEnd
  0
BLOCK
  5
34D
330
34C
100
AcDbEntity
  8
0
100
AcDbBlockBegin
  2
*D2
 70
     1
 10
0.0
 20
0.0
 30
0.0
  3
*D2
  1
*D2
  0
LINE
  5
34F
330
34C
100
AcDbEntity
  8
FORMAT
 62
     0
100
AcDbLine
 10
1.328414974754728
 20
3.004156472984885
 30
0.0
 11
1.328414974754728
 21
4.101582647787293
 31
0.0
  0
LINE
  5
350
330
34C
100
AcDbEntity
  8
FORMAT
 62
     0
100
AcDbLine
 10
7.414274229635028
 20
3.004156472984885
 30
0.0
 11
7.414274229635028
 21
4.101582647787293
 31
0.0
  0
LINE
  5
351
330
34C
100
AcDbEntity
  8
FORMAT
 62
     0
100
AcDbLine
 10
1.458414974754728
 20
3.976582647787293
 30
0.0
 11
4.103011268861545
 21
3.976582647787293
 31
0.0
  0
LINE
  5
352
330
34C
100
AcDbEntity
  8
FORMAT
 62
     0
100
AcDbLine
 10
7.284274229635028
 20
3.976582647787293
 30
0.0
 11
4.63967793552821
 21
3.976582647787293
 31
0.0
  0
SOLID
  5
353
330
34C
100
AcDbEntity
  8
FORMAT
 62
     0
100
AcDbTrace
 10
1.458414974754728
 20
3.998249314453959
 30
0.0
 11
1.458414974754728
 21
3.954915981120626
 31
0.0
 12
1.328414974754728
 22
3.976582647787293
 32
0.0
 13
1.328414974754728
 23
3.976582647787293
 33
0.0
  0
SOLID
  5
354
330
34C
100
AcDbEntity
  8
FORMAT
 62
     0
100
AcDbTrace
 10
7.284274229635028
 20
3.954915981120626
 30
0.0
 11
7.284274229635028
 21
3.998249314453959
 31
0.0
 12
7.414274229635028
 22
3.976582647787293
 32
0.0
 13
7.414274229635028
 23
3.976582647787293
 33
0.0
  0
MTEXT
  5
355
330
34C
100
AcDbEntity
  8
FORMAT
 62
     0
100
AcDbMText
 10
4.371344602194878
 20
3.976582647787293
 30
0.0
 40
0.125
 41
0.0
 71
     5
 72
     1
  1
\A1;12.17
  0
POINT
  5
356
330
34C
100
AcDbEntity
  8
DEFPOINTS
 62
     0
100
AcDbPoint
 10
1.328414974754728
 20
2.954156472984885
 30
0.0
  0
POINT
  5
357
330
34C
100
AcDbEntity
  8
DEFPOINTS
 62
     0
100
AcDbPoint
 10
7.414274229635028
 20
2.954156472984885
 30
0.0
  0
POINT
  5
358
330
34C
100
AcDbEntity
  8
DEFPOINTS
 62
     0
100
AcDbPoint
 10
7.414274229635028
 20
3.976582647787293
 30
0.0
  0
ENDBLK
  5
34E
330
34C
100
AcDbEntity
  8
0
100
AcDbBlockEnd
  0
BLOCK
  5
35D
330
35C
100
AcDbEntity
  8
0
100
AcDbBlockBegin
  2
*D3
 70
     1
 10
0.0
 20
0.0
 30
0.0
  3
*D3
  1
*D3
  0
LINE
  5
35F
330
35C
100
AcDbEntity
  8
FORMAT
 62
     0
100
AcDbLine
 10
-0.4131099522043087
 20
9.295433728003168
 30
0.0
 11
-0.4131099522043087
 21
1.944496830580929
 31
0.0
  0
LINE
  5
360
330
35C
100
AcDbEntity
  8
FORMAT
 62
     0
100
AcDbLine
 10
76.97763956397019
 20
9.295433728003168
 30
0.0
 11
76.97763956397019
 21
1.944496830580929
 31
0.0
  0
LINE
  5
361
330
35C
100
AcDbEntity
  8
FORMAT
 62
     0
100
AcDbLine
 10
-0.2831099522043087
 20
2.069496830580929
 30
0.0
 11
37.93059813921627
 21
2.069496830580929
 31
0.0
  0
LINE
  5
362
330
35C
100
AcDbEntity
  8
FORMAT
 62
     0
100
AcDbLine
 10
76.84763956397019
 20
2.069496830580929
 30
0.0
 11
38.63393147254961
 21
2.069496830580929
 31
0.0
  0
SOLID
  5
363
330
35C
100
AcDbEntity
  8
FORMAT
 62
     0
100
AcDbTrace
 10
-0.2831099522043087
 20
2.091163497247596
 30
0.0
 11
-0.2831099522043087
 21
2.047830163914263
 31
0.0
 12
-0.4131099522043087
 22
2.069496830580929
 32
0.0
 13
-0.4131099522043087
 23
2.069496830580929
 33
0.0
  0
SOLID
  5
364
330
35C
100
AcDbEntity
  8
FORMAT
 62
     0
100
AcDbTrace
 10
76.84763956397019
 20
2.047830163914263
 30
0.0
 11
76.84763956397019
 21
2.091163497247596
 31
0.0
 12
76.97763956397019
 22
2.069496830580929
 32
0.0
 13
76.97763956397019
 23
2.069496830580929
 33
0.0
  0
MTEXT
  5
365
330
35C
100
AcDbEntity
  8
FORMAT
 62
     0
100
AcDbMText
 10
38.28226480588294
 20
2.069496830580929
 30
0.0
 40
0.125
 41
0.0
 71
     5
 72
     1
  1
\A1;154.78
  0
POINT
  5
366
330
35C
100
AcDbEntity
  8
DEFPOINTS
 62
     0
100
AcDbPoint
 10
-0.4131099522043087
 20
9.345433728003169
 30
0.0
  0
POINT
  5
367
330
35C
100
AcDbEntity
  8
DEFPOINTS
 62
     0
100
AcDbPoint
 10
76.97763956397019
 20
9.345433728003169
 30
0.0
  0
POINT
  5
368
330
35C
100
AcDbEntity
  8
DEFPOINTS
 62
     0
100
AcDbPoint
 10
76.97763956397019
 20
2.069496830580929
 30
0.0
  0
ENDBLK
  5
35E
330
35C
100
AcDbEntity
  8
0
100
AcDbBlockEnd
  0
BLOCK
  5
372
330
371
100
AcDbEntity
  8
0
100
AcDbBlockBegin
  2
*D4
 70
     1
 10
0.0
 20
0.0
 30
0.0
  3
*D4
  1
*D4
  0
LINE
  5
374
330
371
100
AcDbEntity
  8
FORMAT
 62
     0
100
AcDbLine
 10
76.93874977953209
 20
28.17969904696407
 30
0.0
 11
76.93874977953209
 21
37.83224640981486
 31
0.0
  0
LINE
  5
375
330
371
100
AcDbEntity
  8
FORMAT
 62
     0
100
AcDbLine
 10
-0.4519997366423567
 20
28.17969904696407
 30
0.0
 11
-0.4519997366423567
 21
37.83224640981486
 31
0.0
  0
LINE
  5
376
330
371
100
AcDbEntity
  8
FORMAT
 62
     0
100
AcDbLine
 10
76.80874977953209
 20
37.70724640981486
 30
0.0
 11
38.59504168811153
 21
37.70724640981486
 31
0.0
  0
LINE
  5
377
330
371
100
AcDbEntity
  8
FORMAT
 62
     0
100
AcDbLine
 10
-0.3219997366423567
 20
37.70724640981486
 30
0.0
 11
37.8917083547782
 21
37.70724640981486
 31
0.0
  0
SOLID
  5
378
330
371
100
AcDbEntity
  8
FORMAT
 62
     0
100
AcDbTrace
 10
76.80874977953209
 20
37.6855797431482
 30
0.0
 11
76.80874977953209
 21
37.72891307648153
 31
0.0
 12
76.93874977953209
 22
37.70724640981486
 32
0.0
 13
76.93874977953209
 23
37.70724640981486
 33
0.0
  0
SOLID
  5
379
330
371
100
AcDbEntity
  8
FORMAT
 62
     0
100
AcDbTrace
 10
-0.3219997366423567
 20
37.72891307648153
 30
0.0
 11
-0.3219997366423567
 21
37.6855797431482
 31
0.0
 12
-0.4519997366423567
 22
37.70724640981486
 32
0.0
 13
-0.4519997366423567
 23
37.70724640981486
 33
0.0
  0
MTEXT
  5
37A
330
371
100
AcDbEntity
  8
FORMAT
 62
     0
100
AcDbMText
 10
38.24337502144486
 20
37.70724640981486
 30
0.0
 40
0.125
 41
0.0
 71
     5
 72
     1
  1
\A1;154.78
  0
POINT
  5
37B
330
371
100
AcDbEntity
  8
DEFPOINTS
 62
     0
100
AcDbPoint
 10
76.93874977953209
 20
28.12969904696407
 30
0.0
  0
POINT
  5
37C
330
371
100
AcDbEntity
  8
DEFPOINTS
 62
     0
100
AcDbPoint
 10
-0.4519997366423567
 20
28.12969904696407
 30
0.0
  0
POINT
  5
37D
330
371
100
AcDbEntity
  8
DEFPOINTS
 62
     0
100
AcDbPoint
 10
-0.4519997366423567
 20
37.70724640981486
 30
0.0
  0
ENDBLK
  5
373
330
371
100
AcDbEntity
  8
0
100
AcDbBlockEnd
  0
BLOCK
  5
3CC
330
3CB
100
AcDbEntity
  8
0
100
AcDbBlockBegin
  2
*D5
 70
     1
 10
0.0
 20
0.0
 30
0.0
  3
*D5
  1
*D5
  0
LINE
  5
3CE
330
3CB
100
AcDbEntity
  8
FORMAT
 62
     0
100
AcDbLine
 10
79.54718473781813
 20
24.64569039380232
 30
0.0
 11
79.54718473781813
 21
33.69202765650354
 31
0.0
  0
LINE
  5
3CF
330
3CB
100
AcDbEntity
  8
FORMAT
 62
     0
100
AcDbLine
 10
2.15643522164369
 20
24.64569039380232
 30
0.0
 11
2.15643522164369
 21
33.69202765650354
 31
0.0
  0
LINE
  5
3D0
330
3CB
100
AcDbEntity
  8
FORMAT
 62
     0
100
AcDbLine
 10
79.41718473781813
 20
33.56702765650354
 30
0.0
 11
41.20347664639758
 21
33.56702765650354
 31
0.0
  0
LINE
  5
3D1
330
3CB
100
AcDbEntity
  8
FORMAT
 62
     0
100
AcDbLine
 10
2.28643522164369
 20
33.56702765650354
 30
0.0
 11
40.50014331306424
 21
33.56702765650354
 31
0.0
  0
SOLID
  5
3D2
330
3CB
100
AcDbEntity
  8
FORMAT
 62
     0
100
AcDbTrace
 10
79.41718473781813
 20
33.54536098983687
 30
0.0
 11
79.41718473781813
 21
33.58869432317021
 31
0.0
 12
79.54718473781813
 22
33.56702765650354
 32
0.0
 13
79.54718473781813
 23
33.56702765650354
 33
0.0
  0
SOLID
  5
3D3
330
3CB
100
AcDbEntity
  8
FORMAT
 62
     0
100
AcDbTrace
 10
2.28643522164369
 20
33.58869432317021
 30
0.0
 11
2.28643522164369
 21
33.54536098983687
 31
0.0
 12
2.15643522164369
 22
33.56702765650354
 32
0.0
 13
2.15643522164369
 23
33.56702765650354
 33
0.0
  0
MTEXT
  5
3D4
330
3CB
100
AcDbEntity
  8
FORMAT
 62
     0
100
AcDbMText
 10
40.85180997973091
 20
33.56702765650354
 30
0.0
 40
0.125
 41
0.0
 71
     5
 72
     1
  1
\A1;154.78
  0
POINT
  5
3D5
330
3CB
100
AcDbEntity
  8
DEFPOINTS
 62
     0
100
AcDbPoint
 10
79.54718473781813
 20
24.59569039380232
 30
0.0
  0
POINT
  5
3D6
330
3CB
100
AcDbEntity
  8
DEFPOINTS
 62
     0
100
AcDbPoint
 10
2.15643522164369
 20
24.59569039380232
 30
0.0
  0
POINT
  5
3D7
330
3CB
100
AcDbEntity
  8
DEFPOINTS
 62
     0
100
AcDbPoint
 10
2.15643522164369
 20
33.56702765650354
 30
0.0
  0
ENDBLK
  5
3CD
330
3CB
100
AcDbEntity
  8
0
100
AcDbBlockEnd
  0
ENDSEC
  0
SECTION
  2
ENTITIES
  0
LINE
  5
4E
330
1F
100
AcDbEntity
  8
0
  6
SLD-SOLID
 62
     5
100
AcDbLine
 10
147.7636718011065
 20
-3.342293521476791
 30
0.0
 11
103.7629293191845
 21
-3.342293333401401
 31
0.0
  0
ARC
  5
4F
330
1F
100
AcDbEntity
  8
0
  6
SLD-SOLID
 62
     5
100
AcDbCircle
 10
103.7629305797983
 20
-2.548056021476834
 30
0.0
 40
0.7942375
100
AcDbArc
 50
180.0
 51
270.0
  0
LINE
  5
50
330
1F
100
AcDbEntity
  8
0
  6
SLD-SOLID
 62
     5
100
AcDbLine
 10
102.9686942184171
 20
-2.548058230092475
 30
0.0
 11
102.9686942184171
 21
-0.9916004686534947
 31
0.0
  0
ARC
  5
51
330
1F
100
AcDbEntity
  8
0
  6
SLD-SOLID
 62
     5
100
AcDbCircle
 10
102.1744555797982
 20
-0.9916006719782651
 30
0.0
 40
0.7942375
100
AcDbArc
 50
0.0
 51
90.0
  0
LINE
  5
52
330
1F
100
AcDbEntity
  8
0
  6
SLD-SOLID
 62
     5
100
AcDbLine
 10
102.1744553866397
 20
-0.1973653653445488
 30
0.0
 11
84.70123094832444
 21
-0.1973653653445488
 31
0.0
  0
ARC
  5
53
330
1F
100
AcDbEntity
  8
0
  6
SLD-SOLID
 62
     5
100
AcDbCircle
 10
84.70123057979826
 20
0.596874328021733
 30
0.0
 40
0.7942375000000456
100
AcDbArc
 50
180.0000000647013
 51
270.0
  0
ARC
  5
54
330
1F
100
AcDbEntity
  8
0
  6
SLD-SOLID
 62
     5
100
AcDbCircle
 10
83.11275557979823
 20
0.596874328021733
 30
0.0
 40
0.7942375
100
AcDbArc
 50
0.0000000647012972
 51
90.0
  0
LINE
  5
55
330
1F
100
AcDbEntity
  8
0
  6
SLD-SOLID
 62
     5
100
AcDbLine
 10
83.1127570157796
 20
1.391112293127204
 30
0.0
 11
65.63952884899585
 21
1.391112293127204
 31
0.0
  0
ARC
  5
56
330
1F
100
AcDbEntity
  8
0
  6
SLD-SOLID
 62
     5
100
AcDbCircle
 10
65.63953057979823
 20
0.596874328021733
 30
0.0
 40
0.7942375
100
AcDbArc
 50
90.0
 51
180.0000000011008
  0
ARC
  5
57
330
1F
100
AcDbEntity
  8
0
  6
SLD-SOLID
 62
     5
100
AcDbCircle
 10
64.05105557979824
 20
0.596874328021733
 30
0.0
 40
0.7942375000000456
100
AcDbArc
 50
270.0
 51
0.0000000011007676
  0
LINE
  5
58
330
1F
100
AcDbEntity
  8
0
  6
SLD-SOLID
 62
     5
100
AcDbLine
 10
64.05105864491964
 20
-0.1973653653445488
 30
0.0
 11
45.78359164635842
 21
-0.1973653653445488
 31
0.0
  0
LINE
  5
59
330
1F
100
AcDbEntity
  8
0
  6
SLD-SOLID
 62
     5
100
AcDbLine
 10
45.78359164635842
 20
-0.1973653653445488
 30
0.0
 11
45.78359164635842
 21
-0.6441901743572407
 31
0.0
  0
ARC
  5
5A
330
1F
100
AcDbEntity
  8
0
  6
SLD-SOLID
 62
     5
100
AcDbCircle
 10
44.98935557979824
 20
-0.6441874040568409
 30
0.0
 40
0.7942375
100
AcDbArc
 50
270.0
 51
0.0
  0
LINE
  5
5B
330
1F
100
AcDbEntity
  8
0
  6
SLD-SOLID
 62
     5
100
AcDbLine
 10
44.98935654559106
 20
-1.438425275124587
 30
0.0
 11
7.819041924283503
 21
-1.438425275124587
 31
0.0
  0
LINE
  5
7A
330
1F
100
AcDbEntity
  8
0
  6
SLD-SOLID
 62
     5
100
AcDbLine
 10
93.59532962270794
 20
24.94373359934902
 30
0.0
 11
70.58066495795588
 21
14.21181955340028
 31
0.0
  0
ARC
  5
7B
330
1F
100
AcDbEntity
  8
0
  6
SLD-SOLID
 62
     5
100
AcDbCircle
 10
101.6511522796344
 20
7.667964533201005
 30
0.0
 40
19.06169999999998
100
AcDbArc
 50
90.0
 51
115.0000000000001
  0
LINE
  5
7C
330
1F
100
AcDbEntity
  8
0
  6
SLD-SOLID
 62
     5
100
AcDbLine
 10
147.7636716460713
 20
26.72966107922094
 30
0.0
 11
101.6511518577355
 21
26.72966107922094
 31
0.0
  0
ARC
  5
7D
330
1F
100
AcDbEntity
  8
0
  6
SLD-SOLID
 62
     5
100
AcDbCircle
 10
147.7636716892778
 20
20.375764533201
 30
0.0
 40
6.3539
100
AcDbArc
 50
0.0
 51
90.0
  0
LINE
  5
7E
330
1F
100
AcDbEntity
  8
0
  6
SLD-SOLID
 62
     5
100
AcDbLine
 10
154.1175718011065
 20
3.011606478523209
 30
0.0
 11
154.1175718011065
 21
20.37576534904174
 31
0.0
  0
ARC
  5
89
330
1F
100
AcDbEntity
  8
0
  6
SLD-SOLID
 62
     5
100
AcDbCircle
 10
5.68996724594757
 20
6.071985053739635
 30
0.0
 40
6.353900000000022
100
AcDbArc
 50
90.0
 51
180.0
  0
LINE
  5
8A
330
1F
100
AcDbEntity
  8
0
  6
SLD-SOLID
 62
     5
100
AcDbLine
 10
62.52484645139682
 20
12.42588461913288
 30
0.0
 11
5.689968496395102
 21
12.42588461913288
 31
0.0
  0
ARC
  5
8B
330
1F
100
AcDbEntity
  8
0
  6
SLD-SOLID
 62
     5
100
AcDbCircle
 10
62.52484389458744
 20
31.48758505373962
 30
0.0
 40
19.06170000000002
100
AcDbArc
 50
270.0
 51
295.0000000000001
  0
CIRCLE
  5
8C
330
1F
100
AcDbEntity
  8
0
  6
SLD-SOLID
 62
     5
100
AcDbCircle
 10
5.054577243406023
 20
6.707375053739643
 30
0.0
 40
2.249280599999972
  0
CIRCLE
  5
8F
330
1F
100
AcDbEntity
  8
0
  6
SLD-SOLID
 62
     5
100
AcDbCircle
 10
62.87506724594758
 20
7.660460053739628
 30
0.0
 40
2.24928059999995
  0
CIRCLE
  5
90
330
1F
100
AcDbEntity
  8
0
  6
SLD-SOLID
 62
     5
100
AcDbCircle
 10
97.42527512828121
 20
18.787289533201
 30
0.0
 40
2.24928059999995
  0
CIRCLE
  5
91
330
1F
100
AcDbEntity
  8
0
  6
SLD-SOLID
 62
     5
100
AcDbCircle
 10
149.9064879013957
 20
18.66021153320098
 30
0.0
 40
2.249280599999994
  0
ARC
  5
139
330
1F
100
AcDbEntity
  8
0
  6
SLD-SOLID
 62
     5
100
AcDbCircle
 10
147.7636718011065
 20
3.011606478523209
 30
0.0
 40
6.3539
100
AcDbArc
 50
270.0
 51
0.0
  0
ARC
  5
162
330
1F
100
AcDbEntity
  8
0
  6
SLD-SOLID
 62
     5
100
AcDbCircle
 10
5.689972768757456
 20
4.915475095943204
 30
0.0
 40
6.3539
100
AcDbArc
 50
180.0
 51
270.0
  0
LINE
  5
165
330
1F
100
AcDbEntity
  8
FORMAT
 62
     5
100
AcDbLine
 10
-0.6639327540524533
 20
6.071985053739635
 30
0.0
 11
-0.6639272312425497
 21
4.915475095943204
 31
0.0
  0
LINE
  5
166
330
1F
100
AcDbEntity
  8
FORMAT
 62
     5
100
AcDbLine
 10
5.689972768757456
 20
-1.438424904056795
 30
0.0
 11
7.819041924283503
 21
-1.438425275124587
 31
0.0
  0
LINE
  5
2A5
330
1F
100
AcDbEntity
  8
0
  6
SLD-SOLID
 62
     5
100
AcDbLine
 10
5.61219319988136
 20
50.741774351285
 30
0.0
 11
49.61293568180328
 21
50.7417741632096
 31
0.0
  0
ARC
  5
2A6
330
1F
100
AcDbEntity
  8
0
  6
SLD-SOLID
 62
     5
100
AcDbCircle
 10
49.61293442118951
 20
49.94753685128499
 30
0.0
 40
0.7942375
100
AcDbArc
 50
0.0
 51
90.0
  0
LINE
  5
2A7
330
1F
100
AcDbEntity
  8
0
  6
SLD-SOLID
 62
     5
100
AcDbLine
 10
50.40717078257064
 20
49.94753905990063
 30
0.0
 11
50.40717078257064
 21
48.39108129846176
 31
0.0
  0
ARC
  5
2A8
330
1F
100
AcDbEntity
  8
0
  6
SLD-SOLID
 62
     5
100
AcDbCircle
 10
51.20140942118952
 20
48.39108150178653
 30
0.0
 40
0.7942375
100
AcDbArc
 50
180.0
 51
270.0
  0
LINE
  5
2A9
330
1F
100
AcDbEntity
  8
0
  6
SLD-SOLID
 62
     5
100
AcDbLine
 10
51.20140961434808
 20
47.59684619515279
 30
0.0
 11
68.67463405266334
 21
47.59684619515279
 31
0.0
  0
ARC
  5
2AA
330
1F
100
AcDbEntity
  8
0
  6
SLD-SOLID
 62
     5
100
AcDbCircle
 10
68.67463442118952
 20
46.80260650178651
 30
0.0
 40
0.7942375000000456
100
AcDbArc
 50
0.0000000647010409
 51
90.0
  0
ARC
  5
2AB
330
1F
100
AcDbEntity
  8
0
  6
SLD-SOLID
 62
     5
100
AcDbCircle
 10
70.26310942118951
 20
46.80260650178651
 30
0.0
 40
0.7942375
100
AcDbArc
 50
180.000000064702
 51
270.0
  0
LINE
  5
2AC
330
1F
100
AcDbEntity
  8
0
  6
SLD-SOLID
 62
     5
100
AcDbLine
 10
70.26310798520814
 20
46.00836853668103
 30
0.0
 11
87.73633615199186
 21
46.00836853668103
 31
0.0
  0
ARC
  5
2AD
330
1F
100
AcDbEntity
  8
0
  6
SLD-SOLID
 62
     5
100
AcDbCircle
 10
87.73633442118951
 20
46.80260650178651
 30
0.0
 40
0.7942375
100
AcDbArc
 50
270.0
 51
0.0000000011010238
  0
ARC
  5
2AE
330
1F
100
AcDbEntity
  8
0
  6
SLD-SOLID
 62
     5
100
AcDbCircle
 10
89.32480942118951
 20
46.80260650178651
 30
0.0
 40
0.7942375000000456
100
AcDbArc
 50
90.0
 51
180.000000001101
  0
LINE
  5
2AF
330
1F
100
AcDbEntity
  8
0
  6
SLD-SOLID
 62
     5
100
AcDbLine
 10
89.32480635606814
 20
47.59684619515279
 30
0.0
 11
107.5922733546293
 21
47.59684619515279
 31
0.0
  0
LINE
  5
2B0
330
1F
100
AcDbEntity
  8
0
  6
SLD-SOLID
 62
     5
100
AcDbLine
 10
107.5922733546293
 20
47.59684619515279
 30
0.0
 11
107.5922733546293
 21
48.0436710041655
 31
0.0
  0
ARC
  5
2B1
330
1F
100
AcDbEntity
  8
0
  6
SLD-SOLID
 62
     5
100
AcDbCircle
 10
108.3865094211896
 20
48.04366823386509
 30
0.0
 40
0.7942375
100
AcDbArc
 50
90.0
 51
180.0
  0
LINE
  5
2B2
330
1F
100
AcDbEntity
  8
0
  6
SLD-SOLID
 62
     5
100
AcDbLine
 10
108.3865084553967
 20
48.83790610493284
 30
0.0
 11
145.5568230767042
 21
48.8379061049328
 31
0.0
  0
LINE
  5
2B3
330
1F
100
AcDbEntity
  8
0
  6
SLD-SOLID
 62
     5
100
AcDbLine
 10
59.78053537827984
 20
22.45574723045924
 30
0.0
 11
82.79520004303191
 21
33.18766127640798
 31
0.0
  0
ARC
  5
2B4
330
1F
100
AcDbEntity
  8
0
  6
SLD-SOLID
 62
     5
100
AcDbCircle
 10
51.72471272135336
 20
39.73151629660725
 30
0.0
 40
19.06169999999998
100
AcDbArc
 50
270.0
 51
294.9999999999999
  0
LINE
  5
2B5
330
1F
100
AcDbEntity
  8
0
  6
SLD-SOLID
 62
     5
100
AcDbLine
 10
5.612193354916463
 20
20.6698197505873
 30
0.0
 11
51.72471314325232
 21
20.6698197505873
 31
0.0
  0
ARC
  5
2B6
330
1F
100
AcDbEntity
  8
0
  6
SLD-SOLID
 62
     5
100
AcDbCircle
 10
5.612193311709945
 20
27.02371629660726
 30
0.0
 40
6.3539
100
AcDbArc
 50
180.0
 51
270.0
  0
LINE
  5
2B7
102
{ACAD_REACTORS
102
}
330
1F
100
AcDbEntity
  8
0
  6
SLD-SOLID
 62
     5
100
AcDbLine
 10
-0.7417068001186431
 20
44.38787435128503
 30
0.0
 11
-0.7417068001186431
 21
27.02371548076652
 31
0.0
  0
ARC
  5
2B8
330
1F
100
AcDbEntity
  8
0
  6
SLD-SOLID
 62
     5
100
AcDbCircle
 10
147.6858977550401
 20
41.32749577606857
 30
0.0
 40
6.353900000000022
100
AcDbArc
 50
270.0
 51
0.0
  0
LINE
  5
2B9
330
1F
100
AcDbEntity
  8
0
  6
SLD-SOLID
 62
     5
100
AcDbLine
 10
90.8510185495909
 20
34.97359621067538
 30
0.0
 11
147.6858965045926
 21
34.97359621067531
 31
0.0
  0
ARC
  5
2BA
330
1F
100
AcDbEntity
  8
0
  6
SLD-SOLID
 62
     5
100
AcDbCircle
 10
90.85102110640032
 20
15.91189577606862
 30
0.0
 40
19.06170000000002
100
AcDbArc
 50
90.0
 51
115.0000000000001
  0
CIRCLE
  5
2BB
330
1F
100
AcDbEntity
  8
0
  6
SLD-SOLID
 62
     5
100
AcDbCircle
 10
148.3212877575817
 20
40.69210577606857
 30
0.0
 40
2.249280599999972
  0
CIRCLE
  5
2BC
330
1F
100
AcDbEntity
  8
0
  6
SLD-SOLID
 62
     5
100
AcDbCircle
 10
90.50079775504015
 20
39.73902077606861
 30
0.0
 40
2.24928059999995
  0
CIRCLE
  5
2BD
330
1F
100
AcDbEntity
  8
0
  6
SLD-SOLID
 62
     5
100
AcDbCircle
 10
55.95058987270656
 20
28.61219129660726
 30
0.0
 40
2.24928059999995
  0
CIRCLE
  5
2BE
330
1F
100
AcDbEntity
  8
0
  6
SLD-SOLID
 62
     5
100
AcDbCircle
 10
3.469377099592115
 20
28.73926929660726
 30
0.0
 40
2.249280599999994
  0
ARC
  5
2BF
330
1F
100
AcDbEntity
  8
0
  6
SLD-SOLID
 62
     5
100
AcDbCircle
 10
5.61219319988136
 20
44.38787435128503
 30
0.0
 40
6.3539
100
AcDbArc
 50
90.0
 51
180.0
  0
ARC
  5
2C0
330
1F
100
AcDbEntity
  8
0
  6
SLD-SOLID
 62
     5
100
AcDbCircle
 10
147.6858922322302
 20
42.484005733865
 30
0.0
 40
6.3539
100
AcDbArc
 50
0.0
 51
90.0
  0
LINE
  5
2C1
102
{ACAD_REACTORS
102
}
330
1F
100
AcDbEntity
  8
FORMAT
 62
     5
100
AcDbLine
 10
154.0397977550404
 20
41.32749577606857
 30
0.0
 11
154.0397922322302
 21
42.484005733865
 31
0.0
  0
LINE
  5
2C2
330
1F
100
AcDbEntity
  8
FORMAT
 62
     5
100
AcDbLine
 10
147.6858922322302
 20
48.837905733865
 30
0.0
 11
145.5568230767042
 21
48.8379061049328
 31
0.0
  0
VIEWPORT
  5
DE
330
1B
100
AcDbEntity
 67
     1
  8
0
100
AcDbViewport
 10
0.0
 20
0.0
 30
0.0
 40
35.42539612676057
 41
13.546875
 68
     1
 69
     1
1001
ACAD
1000
MVIEW
1002
{
1070
    16
1010
0.0
1020
0.0
1030
0.0
1010
0.0
1020
0.0
1030
1.0
1040
0.0
1040
13.546875
1040
3.938179137323945
1040
4.071894366197183
1040
50.0
1040
0.0
1040
0.0
1070
    16
1070
   100
1070
     0
1070
     3
1070
     0
1070
     0
1070
     0
1070
     0
1040
0.0
1040
0.0
1040
0.0
1040
0.5
1040
0.5
1040
0.0
1040
0.0
1070
     0
1002
{
1002
}
1002
}
  0
VIEWPORT
  5
DF
330
1B
100
AcDbEntity
 67
     1
  8
0
100
AcDbViewport
 10
5.25
 20
3.5
 30
0.0
 40
8.4
 41
5.600000000000001
 68
     2
 69
     2
1001
ACAD
1000
MVIEW
1002
{
1070
    16
1010
0.0
1020
0.0
1030
0.0
1010
0.0
1020
0.0
1030
1.0
1040
0.0
1040
6.950002982586001
1040
7.9067586229
1040
5.70634482755
1040
50.0
1040
0.0
1040
0.0
1070
     0
1070
   100
1070
     0
1070
     3
1070
     0
1070
     0
1070
     0
1070
     0
1040
0.0
1040
0.0
1040
0.0
1040
0.5
1040
0.5
1040
0.0
1040
0.0
1070
     0
1002
{
1002
}
1002
}
  0
ENDSEC
  0
SECTION
  2
OBJECTS
  0
DICTIONARY
  5
C
330
0
100
AcDbDictionary
  3
ACAD_DETAILVIEWSTYLE
350
16C
  3
ACAD_GROUP
350
D
  3
ACAD_IMAGE_VARS
350
DD
  3
ACAD_MLINESTYLE
350
17
  3
ACAD_SCALELIST
350
3D9
  3
ACAD_SECTIONVIEWSTYLE
350
16D
  3
ACDBVARIABLEDICTIONARY
350
167
  3
ACSTSTANDARD
350
30B
  3
APPDATA
350
DB
  3
DWGPROPS
350
420
  0
DICTIONARY
  5
E1
330
2
100
AcDbDictionary
280
     1
  3
ACAD_LAYERSTATES
360
E2
  0
DICTIONARY
  5
16C
102
{ACAD_REACTORS
330
C
102
}
330
C
100
AcDbDictionary
  0
DICTIONARY
  5
D
102
{ACAD_REACTORS
330
C
102
}
330
C
100
AcDbDictionary
  0
RASTERVARIABLES
  5
DD
102
{ACAD_REACTORS
330
C
102
}
330
C
100
AcDbRasterVariables
 90
        0
 70
     1
 71
     1
 72
     0
  0
DICTIONARY
  5
17
102
{ACAD_REACTORS
330
C
102
}
330
C
100
AcDbDictionary
  3
STANDARD
350
18
  0
DICTIONARY
  5
3D9
102
{ACAD_REACTORS
330
C
102
}
330
C
100
AcDbDictionary
  0
DICTIONARY
  5
16D
102
{ACAD_REACTORS
330
C
102
}
330
C
100
AcDbDictionary
  0
DICTIONARY
  5
167
102
{ACAD_REACTORS
330
C
102
}
330
C
100
AcDbDictionary
  3
HPTRANSPARENCY
350
331
  0
DICTIONARY
  5
30B
102
{ACAD_REACTORS
330
C
102
}
330
C
100
AcDbDictionary
  0
DICTIONARY
  5
DB
102
{ACAD_REACTORS
330
C
102
}
330
C
100
AcDbDictionary
  0
XRECORD
  5
420
102
{ACAD_REACTORS
330
C
102
}
330
C
100
AcDbXrecord
  1
DWGPROPS COOKIE
  2

  3

  4

  6

  7

  8
Nick
  9

300
=
301
=
302
=
303
=
304
=
305
=
306
=
307
=
308
=
309
=
 40
0.0
 41
2457232.402271586
 42
2457396.045378252
  1

 90
        0
  0
DICTIONARY
  5
E2
102
{ACAD_REACTORS
330
E1
102
}
330
E1
100
AcDbDictionary
  0
MLINESTYLE
  5
18
102
{ACAD_REACTORS
330
17
102
}
330
17
100
AcDbMlineStyle
  2
Standard
 70
     0
  3

 62
   256
 51
90.0
 52
90.0
 71
     2
 49
0.5
 62
   256
  6
BYLAYER
 49
-0.5
 62
   256
  6
BYLAYER
  0
DICTIONARYVAR
  5
331
102
{ACAD_REACTORS
330
167
102
}
330
167
100
DictionaryVariables
280
     0
  1
ByLayer
  0
ENDSEC
  0
EOF
