  0
SECTION
  2
HEADER
  9
$ACADVER
  1
AC1014
  9
$ACADMAINTVER
 70
     9
  9
$DWGCODEPAGE
  3
ANSI_1252
  9
$INSBASE
 10
0.0
 20
0.0
 30
0.0
  9
$EXTMIN
 10
1.000000000000000E+20
 20
1.000000000000000E+20
 30
1.000000000000000E+20
  9
$EXTMAX
 10
-1.000000000000000E+20
 20
-1.000000000000000E+20
 30
-1.000000000000000E+20
  9
$LIMMIN
 10
0.0
 20
0.0
  9
$LIMMAX
 10
17.0
 20
11.0
  9
$ORTHOMODE
 70
     0
  9
$REGENMODE
 70
     1
  9
$FILLMODE
 70
     1
  9
$QTEXTMODE
 70
     0
  9
$MIRRTEXT
 70
     1
  9
$DRAGMODE
 70
     2
  9
$LTSCALE
 40
1.0
  9
$OSMODE
 70
   511
  9
$ATTMODE
 70
     1
  9
$TEXTSIZE
 40
0.125
  9
$TRACEWID
 40
0.05
  9
$TEXTSTYLE
  7
STANDARD
  9
$CLAYER
  8
FORMAT
  9
$CELTYPE
  6
BYLAYER
  9
$CECOLOR
 62
   256
  9
$CELTSCALE
 40
1.0
  9
$DELOBJ
 70
     1
  9
$DISPSILH
 70
     0
  9
$DIMSCALE
 40
1.0
  9
$DIMASZ
 40
0.13
  9
$DIMEXO
 40
0.05
  9
$DIMDLI
 40
0.38
  9
$DIMRND
 40
0.0
  9
$DIMDLE
 40
0.0
  9
$DIMEXE
 40
0.125
  9
$DIMTP
 40
0.0
  9
$DIMTM
 40
0.0
  9
$DIMTXT
 40
0.125
  9
$DIMCEN
 40
0.09
  9
$DIMTSZ
 40
0.0
  9
$DIMTOL
 70
     0
  9
$DIMLIM
 70
     0
  9
$DIMTIH
 70
     1
  9
$DIMTOH
 70
     1
  9
$DIMSE1
 70
     0
  9
$DIMSE2
 70
     0
  9
$DIMTAD
 70
     0
  9
$DIMZIN
 70
     0
  9
$DIMBLK
  1

  9
$DIMASO
 70
     1
  9
$DIMSHO
 70
     1
  9
$DIMPOST
  1

  9
$DIMAPOST
  1

  9
$DIMALT
 70
     0
  9
$DIMALTD
 70
     2
  9
$DIMALTF
 40
25.4
  9
$DIMLFAC
 40
2.0
  9
$DIMTOFL
 70
     0
  9
$DIMTVP
 40
0.0
  9
$DIMTIX
 70
     0
  9
$DIMSOXD
 70
     0
  9
$DIMSAH
 70
     0
  9
$DIMBLK1
  1

  9
$DIMBLK2
  1

  9
$DIMSTYLE
  2
STANDARD
  9
$DIMCLRD
 70
     0
  9
$DIMCLRE
 70
     0
  9
$DIMCLRT
 70
     0
  9
$DIMTFAC
 40
1.0
  9
$DIMGAP
 40
0.06
  9
$DIMJUST
 70
     0
  9
$DIMSD1
 70
     0
  9
$DIMSD2
 70
     0
  9
$DIMTOLJ
 70
     1
  9
$DIMTZIN
 70
     0
  9
$DIMALTZ
 70
     0
  9
$DIMALTTZ
 70
     0
  9
$DIMFIT
 70
     5
  9
$DIMUPT
 70
     0
  9
$DIMUNIT
 70
     2
  9
$DIMDEC
 70
     2
  9
$DIMTDEC
 70
     2
  9
$DIMALTU
 70
     2
  9
$DIMALTTD
 70
     2
  9
$DIMTXSTY
  7
STANDARD
  9
$DIMAUNIT
 70
     0
  9
$LUNITS
 70
     2
  9
$LUPREC
 70
     2
  9
$SKETCHINC
 40
0.1
  9
$FILLETRAD
 40
0.5
  9
$AUNITS
 70
     0
  9
$AUPREC
 70
     2
  9
$MENU
  1
.
  9
$ELEVATION
 40
0.0
  9
$PELEVATION
 40
0.0
  9
$THICKNESS
 40
0.0
  9
$LIMCHECK
 70
     0
  9
$CHAMFERA
 40
0.5
  9
$CHAMFERB
 40
0.5
  9
$CHAMFERC
 40
1.0
  9
$CHAMFERD
 40
0.0
  9
$SKPOLY
 70
     0
  9
$TDCREATE
 40
2457232.193938253
  9
$TDUPDATE
 40
2457401.850490012
  9
$TDINDWG
 40
0.0087664352
  9
$TDUSRTIMER
 40
2457402.058583391
  9
$USRTIMER
 70
     1
  9
$ANGBASE
 50
0.0
  9
$ANGDIR
 70
     0
  9
$PDMODE
 70
     0
  9
$PDSIZE
 40
-1.0
  9
$PLINEWID
 40
0.0
  9
$COORDS
 70
     1
  9
$SPLFRAME
 70
     0
  9
$SPLINETYPE
 70
     6
  9
$SPLINESEGS
 70
     8
  9
$ATTDIA
 70
     0
  9
$ATTREQ
 70
     1
  9
$HANDLING
 70
     1
  9
$HANDSEED
  5
8D8
  9
$SURFTAB1
 70
     6
  9
$SURFTAB2
 70
     6
  9
$SURFTYPE
 70
     6
  9
$SURFU
 70
     6
  9
$SURFV
 70
     6
  9
$UCSNAME
  2

  9
$UCSORG
 10
0.0
 20
0.0
 30
0.0
  9
$UCSXDIR
 10
1.0
 20
0.0
 30
0.0
  9
$UCSYDIR
 10
0.0
 20
1.0
 30
0.0
  9
$PUCSNAME
  2

  9
$PUCSORG
 10
0.0
 20
0.0
 30
0.0
  9
$PUCSXDIR
 10
1.0
 20
0.0
 30
0.0
  9
$PUCSYDIR
 10
0.0
 20
1.0
 30
0.0
  9
$USERI1
 70
     0
  9
$USERI2
 70
     0
  9
$USERI3
 70
     0
  9
$USERI4
 70
     0
  9
$USERI5
 70
     0
  9
$USERR1
 40
0.0
  9
$USERR2
 40
0.0
  9
$USERR3
 40
0.0
  9
$USERR4
 40
0.0
  9
$USERR5
 40
0.0
  9
$WORLDVIEW
 70
     1
  9
$SHADEDGE
 70
     3
  9
$SHADEDIF
 70
    70
  9
$TILEMODE
 70
     1
  9
$MAXACTVP
 70
    64
  9
$PINSBASE
 10
0.0
 20
0.0
 30
0.0
  9
$PLIMCHECK
 70
     0
  9
$PEXTMIN
 10
1.05
 20
0.6999999999999997
 30
0.0
  9
$PEXTMAX
 10
9.45
 20
6.300000000000001
 30
0.0
  9
$PLIMMIN
 10
0.0
 20
0.0
  9
$PLIMMAX
 10
0.0
 20
0.0
  9
$UNITMODE
 70
     0
  9
$VISRETAIN
 70
     1
  9
$PLINEGEN
 70
     0
  9
$PSLTSCALE
 70
     1
  9
$TREEDEPTH
 70
  3020
  9
$PICKSTYLE
 70
     1
  9
$CMLSTYLE
  2
STANDARD
  9
$CMLJUST
 70
     0
  9
$CMLSCALE
 40
1.0
  9
$PROXYGRAPHICS
 70
     1
  9
$MEASUREMENT
 70
     0
  0
ENDSEC
  0
SECTION
  2
CLASSES
  0
CLASS
  1
ACDBDICTIONARYWDFLT
  2
AcDbDictionaryWithDefault
  3
ObjectDBX Classes
 90
        0
280
     0
281
     0
  0
CLASS
  1
VISUALSTYLE
  2
AcDbVisualStyle
  3
ObjectDBX Classes
 90
     4095
280
     0
281
     0
  0
CLASS
  1
MATERIAL
  2
AcDbMaterial
  3
ObjectDBX Classes
 90
     1153
280
     0
281
     0
  0
CLASS
  1
XRECORD
  2
AcDbXrecord
  3
ObjectDBX Classes
 90
        0
280
     0
281
     0
  0
CLASS
  1
SCALE
  2
AcDbScale
  3
ObjectDBX Classes
 90
     1153
280
     0
281
     0
  0
CLASS
  1
TABLESTYLE
  2
AcDbTableStyle
  3
ObjectDBX Classes
 90
     4095
280
     0
281
     0
  0
CLASS
  1
MLEADERSTYLE
  2
AcDbMLeaderStyle
  3
ACDB_MLEADERSTYLE_CLASS
 90
     4095
280
     0
281
     0
  0
CLASS
  1
SUN
  2
AcDbSun
  3
SCENEOE
 90
     1153
280
     0
281
     0
  0
CLASS
  1
RASTERVARIABLES
  2
AcDbRasterVariables
  3
ISM
 90
        0
280
     0
281
     0
  0
CLASS
  1
DICTIONARYVAR
  2
AcDbDictionaryVar
  3
ObjectDBX Classes
 90
        0
280
     0
281
     0
  0
CLASS
  1
LWPOLYLINE
  2
AcDbPolyline
  3
ObjectDBX Classes
 90
        0
280
     0
281
     1
  0
CLASS
  1
HATCH
  2
AcDbHatch
  3
ObjectDBX Classes
 90
        0
280
     0
281
     1
  0
CLASS
  1
DIMASSOC
  2
AcDbDimAssoc
  3
"AcDbDimAssoc|Product Desc:     AcDim ARX App For Dimension|Company:          Autodesk, Inc.|WEB Address:      www.autodesk.com"
 90
        0
280
     0
281
     0
  0
ENDSEC
  0
SECTION
  2
TABLES
  0
TABLE
  2
VPORT
  5
8
330
0
100
AcDbSymbolTable
 70
     1
  0
VPORT
  5
29
330
8
100
AcDbSymbolTableRecord
100
AcDbViewportTableRecord
  2
*ACTIVE
 70
     0
 10
0.0
 20
0.0
 11
1.0
 21
1.0
 12
261.1648501511174
 22
162.3790455524979
 13
0.0
 23
0.0
 14
0.5
 24
0.5
 15
0.5
 25
0.5
 16
0.0
 26
0.0
 36
1.0
 17
0.0
 27
0.0
 37
0.0
 40
227.2027047524228
 41
3.688679245283019
 42
50.0
 43
0.0
 44
0.0
 50
0.0
 51
0.0
 71
    16
 72
  2000
 73
     1
 74
     3
 75
     0
 76
     0
 77
     0
 78
     0
  0
ENDTAB
  0
TABLE
  2
LTYPE
  5
5
330
0
100
AcDbSymbolTable
 70
     8
  0
LTYPE
  5
14
330
5
100
AcDbSymbolTableRecord
100
AcDbLinetypeTableRecord
  2
BYBLOCK
 70
     0
  3

 72
    65
 73
     0
 40
0.0
  0
LTYPE
  5
15
330
5
100
AcDbSymbolTableRecord
100
AcDbLinetypeTableRecord
  2
BYLAYER
 70
     0
  3

 72
    65
 73
     0
 40
0.0
  0
LTYPE
  5
16
330
5
100
AcDbSymbolTableRecord
100
AcDbLinetypeTableRecord
  2
CONTINUOUS
 70
     0
  3
Solid line
 72
    65
 73
     0
 40
0.0
  0
LTYPE
  5
3F
330
5
100
AcDbSymbolTableRecord
100
AcDbLinetypeTableRecord
  2
SLD-SOLID
 70
     0
  3
SolidWorks Line Style
 72
    65
 73
     0
 40
0.0
  0
LTYPE
  5
40
330
5
100
AcDbSymbolTableRecord
100
AcDbLinetypeTableRecord
  2
SLD-DASHED
 70
     0
  3
SolidWorks Line Style
 72
    65
 73
     2
 40
0.075
 49
0.05
 74
     0
 49
-0.025
 74
     0
  0
LTYPE
  5
41
330
5
100
AcDbSymbolTableRecord
100
AcDbLinetypeTableRecord
  2
SLD-PHANTOM
 70
     0
  3
SolidWorks Line Style
 72
    65
 73
     6
 40
0.5
 49
0.25
 74
     0
 49
-0.05
 74
     0
 49
0.05
 74
     0
 49
-0.05
 74
     0
 49
0.05
 74
     0
 49
-0.05
 74
     0
  0
LTYPE
  5
42
330
5
100
AcDbSymbolTableRecord
100
AcDbLinetypeTableRecord
  2
SLD-CHAIN
 70
     0
  3
SolidWorks Line Style
 72
    65
 73
     4
 40
0.4
 49
0.25
 74
     0
 49
-0.05
 74
     0
 49
0.05
 74
     0
 49
-0.05
 74
     0
  0
LTYPE
  5
43
330
5
100
AcDbSymbolTableRecord
100
AcDbLinetypeTableRecord
  2
SLD-CENTER
 70
     0
  3
SolidWorks Line Style
 72
    65
 73
     4
 40
0.75
 49
0.6
 74
     0
 49
-0.05
 74
     0
 49
0.05
 74
     0
 49
-0.05
 74
     0
  0
LTYPE
  5
44
330
5
100
AcDbSymbolTableRecord
100
AcDbLinetypeTableRecord
  2
SLD-STITCH
 70
     0
  3
SolidWorks Line Style
 72
    65
 73
     2
 40
0.025
 49
0.0
 74
     0
 49
-0.025
 74
     0
  0
LTYPE
  5
45
330
5
100
AcDbSymbolTableRecord
100
AcDbLinetypeTableRecord
  2
SLD-THIN-THICK-CHAIN
 70
     0
  3
SolidWorks Line Style
 72
    65
 73
     4
 40
0.4
 49
0.25
 74
     0
 49
-0.05
 74
     0
 49
0.05
 74
     0
 49
-0.05
 74
     0
  0
ENDTAB
  0
TABLE
  2
LAYER
  5
2
102
{ACAD_XDICTIONARY
360
E1
102
}
330
0
100
AcDbSymbolTable
 70
     3
  0
LAYER
  5
10
330
2
100
AcDbSymbolTableRecord
100
AcDbLayerTableRecord
  2
0
 70
     0
 62
     7
  6
CONTINUOUS
  0
LAYER
  5
46
330
2
100
AcDbSymbolTableRecord
100
AcDbLayerTableRecord
  2
FORMAT
 70
     0
 62
     7
  6
SLD-SOLID
  0
LAYER
  5
30C
330
2
100
AcDbSymbolTableRecord
100
AcDbLayerTableRecord
  2
DEFPOINTS
 70
     0
 62
     7
  6
CONTINUOUS
  0
ENDTAB
  0
TABLE
  2
STYLE
  5
3
330
0
100
AcDbSymbolTable
 70
     1
  0
STYLE
  5
11
330
3
100
AcDbSymbolTableRecord
100
AcDbTextStyleTableRecord
  2
STANDARD
 70
     0
 40
0.0
 41
1.0
 50
0.0
 71
     0
 42
0.125
  3
txt
  4

  0
ENDTAB
  0
TABLE
  2
VIEW
  5
6
330
0
100
AcDbSymbolTable
 70
     0
  0
ENDTAB
  0
TABLE
  2
UCS
  5
7
330
0
100
AcDbSymbolTable
 70
     0
  0
ENDTAB
  0
TABLE
  2
APPID
  5
9
330
0
100
AcDbSymbolTable
 70
     1
  0
APPID
  5
12
330
9
100
AcDbSymbolTableRecord
100
AcDbRegAppTableRecord
  2
ACAD
 70
     0
  0
ENDTAB
  0
TABLE
  2
DIMSTYLE
  5
A
330
0
100
AcDbSymbolTable
 70
     1
  0
DIMSTYLE
105
27
330
A
100
AcDbSymbolTableRecord
100
AcDbDimStyleTableRecord
  2
STANDARD
 70
     0
  3

  4

  5

  6

  7

 40
1.0
 41
0.18
 42
0.0625
 43
0.38
 44
0.18
 45
0.0
 46
0.0
 47
0.0
 48
0.0
140
0.18
141
0.09
142
0.0
143
25.4
144
1.0
145
0.0
146
1.0
147
0.09
 71
     0
 72
     0
 73
     1
 74
     1
 75
     0
 76
     0
 77
     0
 78
     0
170
     0
171
     2
172
     0
173
     0
174
     0
175
     0
176
     0
177
     0
178
     0
270
     2
271
     4
272
     4
273
     2
274
     2
340
11
275
     0
280
     0
281
     0
282
     0
283
     1
284
     0
285
     0
286
     0
287
     3
288
     0
  0
ENDTAB
  0
TABLE
  2
BLOCK_RECORD
  5
1
330
0
100
AcDbSymbolTable
 70
    12
  0
BLOCK_RECORD
  5
1F
330
1
100
AcDbSymbolTableRecord
100
AcDbBlockTableRecord
  2
*MODEL_SPACE
  0
BLOCK_RECORD
  5
1B
330
1
100
AcDbSymbolTableRecord
100
AcDbBlockTableRecord
  2
*PAPER_SPACE
  0
BLOCK_RECORD
  5
23
330
1
100
AcDbSymbolTableRecord
100
AcDbBlockTableRecord
  2
*PAPER_SPACE0
  0
BLOCK_RECORD
  5
321
330
1
100
AcDbSymbolTableRecord
100
AcDbBlockTableRecord
  2
*D1
  0
BLOCK_RECORD
  5
34C
330
1
100
AcDbSymbolTableRecord
100
AcDbBlockTableRecord
  2
*D2
  0
BLOCK_RECORD
  5
35C
330
1
100
AcDbSymbolTableRecord
100
AcDbBlockTableRecord
  2
*D3
  0
BLOCK_RECORD
  5
371
330
1
100
AcDbSymbolTableRecord
100
AcDbBlockTableRecord
  2
*D4
  0
BLOCK_RECORD
  5
3CB
330
1
100
AcDbSymbolTableRecord
100
AcDbBlockTableRecord
  2
*D5
  0
BLOCK_RECORD
  5
46B
330
1
100
AcDbSymbolTableRecord
100
AcDbBlockTableRecord
  2
*D6
  0
ENDTAB
  0
ENDSEC
  0
SECTION
  2
BLOCKS
  0
BLOCK
  5
20
330
1F
100
AcDbEntity
  8
0
100
AcDbBlockBegin
  2
*MODEL_SPACE
 70
     0
 10
0.0
 20
0.0
 30
0.0
  3
*MODEL_SPACE
  1

  0
ENDBLK
  5
21
330
1F
100
AcDbEntity
  8
0
100
AcDbBlockEnd
  0
BLOCK
  5
1C
330
1B
100
AcDbEntity
 67
     1
  8
0
100
AcDbBlockBegin
  2
*PAPER_SPACE
 70
     0
 10
0.0
 20
0.0
 30
0.0
  3
*PAPER_SPACE
  1

  0
ENDBLK
  5
1D
330
1B
100
AcDbEntity
 67
     1
  8
0
100
AcDbBlockEnd
  0
BLOCK
  5
24
330
23
100
AcDbEntity
  8
0
100
AcDbBlockBegin
  2
*PAPER_SPACE0
 70
     0
 10
0.0
 20
0.0
 30
0.0
  3
*PAPER_SPACE0
  1
*PAPER_SPACE0
  0
ENDBLK
  5
25
330
23
100
AcDbEntity
  8
0
100
AcDbBlockEnd
  0
BLOCK
  5
322
330
321
100
AcDbEntity
  8
0
100
AcDbBlockBegin
  2
*D1
 70
     1
 10
0.0
 20
0.0
 30
0.0
  3
*D1
  1
*D1
  0
LINE
  5
324
330
321
100
AcDbEntity
  8
FORMAT
 62
     0
100
AcDbLine
 10
5.792873043073425
 20
4.839348722412334
 30
0.0
 11
5.792873043073425
 21
5.98719975296641
 31
0.0
  0
LINE
  5
325
330
321
100
AcDbEntity
  8
FORMAT
 62
     0
100
AcDbLine
 10
11.88289252057342
 20
4.839348722412334
 30
0.0
 11
11.88289252057342
 21
5.98719975296641
 31
0.0
  0
LINE
  5
326
330
321
100
AcDbEntity
  8
FORMAT
 62
     0
100
AcDbLine
 10
5.922873043073425
 20
5.86219975296641
 30
0.0
 11
8.569549448490088
 21
5.86219975296641
 31
0.0
  0
LINE
  5
327
330
321
100
AcDbEntity
  8
FORMAT
 62
     0
100
AcDbLine
 10
11.75289252057342
 20
5.86219975296641
 30
0.0
 11
9.106216115156757
 21
5.86219975296641
 31
0.0
  0
SOLID
  5
328
330
321
100
AcDbEntity
  8
FORMAT
 62
     0
100
AcDbTrace
 10
5.922873043073425
 20
5.883866419633077
 30
0.0
 11
5.922873043073425
 21
5.840533086299744
 31
0.0
 12
5.792873043073425
 22
5.86219975296641
 32
0.0
 13
5.792873043073425
 23
5.86219975296641
 33
0.0
  0
SOLID
  5
329
330
321
100
AcDbEntity
  8
FORMAT
 62
     0
100
AcDbTrace
 10
11.75289252057342
 20
5.840533086299744
 30
0.0
 11
11.75289252057342
 21
5.883866419633077
 31
0.0
 12
11.88289252057342
 22
5.86219975296641
 32
0.0
 13
11.88289252057342
 23
5.86219975296641
 33
0.0
  0
MTEXT
  5
32A
330
321
100
AcDbEntity
  8
FORMAT
 62
     0
100
AcDbMText
 10
8.837882781823422
 20
5.86219975296641
 30
0.0
 40
0.125
 41
0.0
 71
     5
 72
     1
  1
\A1;12.18
  0
POINT
  5
32B
330
321
100
AcDbEntity
  8
DEFPOINTS
 62
     0
100
AcDbPoint
 10
5.792873043073425
 20
4.789348722412334
 30
0.0
  0
POINT
  5
32C
330
321
100
AcDbEntity
  8
DEFPOINTS
 62
     0
100
AcDbPoint
 10
11.88289252057342
 20
4.789348722412334
 30
0.0
  0
POINT
  5
32D
330
321
100
AcDbEntity
  8
DEFPOINTS
 62
     0
100
AcDbPoint
 10
11.88289252057342
 20
5.86219975296641
 30
0.0
  0
ENDBLK
  5
323
330
321
100
AcDbEntity
  8
0
100
AcDbBlockEnd
  0
BLOCK
  5
34D
330
34C
100
AcDbEntity
  8
0
100
AcDbBlockBegin
  2
*D2
 70
     1
 10
0.0
 20
0.0
 30
0.0
  3
*D2
  1
*D2
  0
LINE
  5
34F
330
34C
100
AcDbEntity
  8
FORMAT
 62
     0
100
AcDbLine
 10
1.328414974754728
 20
3.004156472984885
 30
0.0
 11
1.328414974754728
 21
4.101582647787293
 31
0.0
  0
LINE
  5
350
330
34C
100
AcDbEntity
  8
FORMAT
 62
     0
100
AcDbLine
 10
7.414274229635028
 20
3.004156472984885
 30
0.0
 11
7.414274229635028
 21
4.101582647787293
 31
0.0
  0
LINE
  5
351
330
34C
100
AcDbEntity
  8
FORMAT
 62
     0
100
AcDbLine
 10
1.458414974754728
 20
3.976582647787293
 30
0.0
 11
4.103011268861545
 21
3.976582647787293
 31
0.0
  0
LINE
  5
352
330
34C
100
AcDbEntity
  8
FORMAT
 62
     0
100
AcDbLine
 10
7.284274229635028
 20
3.976582647787293
 30
0.0
 11
4.63967793552821
 21
3.976582647787293
 31
0.0
  0
SOLID
  5
353
330
34C
100
AcDbEntity
  8
FORMAT
 62
     0
100
AcDbTrace
 10
1.458414974754728
 20
3.998249314453959
 30
0.0
 11
1.458414974754728
 21
3.954915981120626
 31
0.0
 12
1.328414974754728
 22
3.976582647787293
 32
0.0
 13
1.328414974754728
 23
3.976582647787293
 33
0.0
  0
SOLID
  5
354
330
34C
100
AcDbEntity
  8
FORMAT
 62
     0
100
AcDbTrace
 10
7.284274229635028
 20
3.954915981120626
 30
0.0
 11
7.284274229635028
 21
3.998249314453959
 31
0.0
 12
7.414274229635028
 22
3.976582647787293
 32
0.0
 13
7.414274229635028
 23
3.976582647787293
 33
0.0
  0
MTEXT
  5
355
330
34C
100
AcDbEntity
  8
FORMAT
 62
     0
100
AcDbMText
 10
4.371344602194878
 20
3.976582647787293
 30
0.0
 40
0.125
 41
0.0
 71
     5
 72
     1
  1
\A1;12.17
  0
POINT
  5
356
330
34C
100
AcDbEntity
  8
DEFPOINTS
 62
     0
100
AcDbPoint
 10
1.328414974754728
 20
2.954156472984885
 30
0.0
  0
POINT
  5
357
330
34C
100
AcDbEntity
  8
DEFPOINTS
 62
     0
100
AcDbPoint
 10
7.414274229635028
 20
2.954156472984885
 30
0.0
  0
POINT
  5
358
330
34C
100
AcDbEntity
  8
DEFPOINTS
 62
     0
100
AcDbPoint
 10
7.414274229635028
 20
3.976582647787293
 30
0.0
  0
ENDBLK
  5
34E
330
34C
100
AcDbEntity
  8
0
100
AcDbBlockEnd
  0
BLOCK
  5
35D
330
35C
100
AcDbEntity
  8
0
100
AcDbBlockBegin
  2
*D3
 70
     1
 10
0.0
 20
0.0
 30
0.0
  3
*D3
  1
*D3
  0
LINE
  5
35F
330
35C
100
AcDbEntity
  8
FORMAT
 62
     0
100
AcDbLine
 10
-0.4131099522043087
 20
9.295433728003168
 30
0.0
 11
-0.4131099522043087
 21
1.944496830580929
 31
0.0
  0
LINE
  5
360
330
35C
100
AcDbEntity
  8
FORMAT
 62
     0
100
AcDbLine
 10
76.97763956397019
 20
9.295433728003168
 30
0.0
 11
76.97763956397019
 21
1.944496830580929
 31
0.0
  0
LINE
  5
361
330
35C
100
AcDbEntity
  8
FORMAT
 62
     0
100
AcDbLine
 10
-0.2831099522043087
 20
2.069496830580929
 30
0.0
 11
37.93059813921627
 21
2.069496830580929
 31
0.0
  0
LINE
  5
362
330
35C
100
AcDbEntity
  8
FORMAT
 62
     0
100
AcDbLine
 10
76.84763956397019
 20
2.069496830580929
 30
0.0
 11
38.63393147254961
 21
2.069496830580929
 31
0.0
  0
SOLID
  5
363
330
35C
100
AcDbEntity
  8
FORMAT
 62
     0
100
AcDbTrace
 10
-0.2831099522043087
 20
2.091163497247596
 30
0.0
 11
-0.2831099522043087
 21
2.047830163914263
 31
0.0
 12
-0.4131099522043087
 22
2.069496830580929
 32
0.0
 13
-0.4131099522043087
 23
2.069496830580929
 33
0.0
  0
SOLID
  5
364
330
35C
100
AcDbEntity
  8
FORMAT
 62
     0
100
AcDbTrace
 10
76.84763956397019
 20
2.047830163914263
 30
0.0
 11
76.84763956397019
 21
2.091163497247596
 31
0.0
 12
76.97763956397019
 22
2.069496830580929
 32
0.0
 13
76.97763956397019
 23
2.069496830580929
 33
0.0
  0
MTEXT
  5
365
330
35C
100
AcDbEntity
  8
FORMAT
 62
     0
100
AcDbMText
 10
38.28226480588294
 20
2.069496830580929
 30
0.0
 40
0.125
 41
0.0
 71
     5
 72
     1
  1
\A1;154.78
  0
POINT
  5
366
330
35C
100
AcDbEntity
  8
DEFPOINTS
 62
     0
100
AcDbPoint
 10
-0.4131099522043087
 20
9.345433728003169
 30
0.0
  0
POINT
  5
367
330
35C
100
AcDbEntity
  8
DEFPOINTS
 62
     0
100
AcDbPoint
 10
76.97763956397019
 20
9.345433728003169
 30
0.0
  0
POINT
  5
368
330
35C
100
AcDbEntity
  8
DEFPOINTS
 62
     0
100
AcDbPoint
 10
76.97763956397019
 20
2.069496830580929
 30
0.0
  0
ENDBLK
  5
35E
330
35C
100
AcDbEntity
  8
0
100
AcDbBlockEnd
  0
BLOCK
  5
372
330
371
100
AcDbEntity
  8
0
100
AcDbBlockBegin
  2
*D4
 70
     1
 10
0.0
 20
0.0
 30
0.0
  3
*D4
  1
*D4
  0
LINE
  5
374
330
371
100
AcDbEntity
  8
FORMAT
 62
     0
100
AcDbLine
 10
76.93874977953209
 20
28.17969904696407
 30
0.0
 11
76.93874977953209
 21
37.83224640981486
 31
0.0
  0
LINE
  5
375
330
371
100
AcDbEntity
  8
FORMAT
 62
     0
100
AcDbLine
 10
-0.4519997366423567
 20
28.17969904696407
 30
0.0
 11
-0.4519997366423567
 21
37.83224640981486
 31
0.0
  0
LINE
  5
376
330
371
100
AcDbEntity
  8
FORMAT
 62
     0
100
AcDbLine
 10
76.80874977953209
 20
37.70724640981486
 30
0.0
 11
38.59504168811153
 21
37.70724640981486
 31
0.0
  0
LINE
  5
377
330
371
100
AcDbEntity
  8
FORMAT
 62
     0
100
AcDbLine
 10
-0.3219997366423567
 20
37.70724640981486
 30
0.0
 11
37.8917083547782
 21
37.70724640981486
 31
0.0
  0
SOLID
  5
378
330
371
100
AcDbEntity
  8
FORMAT
 62
     0
100
AcDbTrace
 10
76.80874977953209
 20
37.6855797431482
 30
0.0
 11
76.80874977953209
 21
37.72891307648153
 31
0.0
 12
76.93874977953209
 22
37.70724640981486
 32
0.0
 13
76.93874977953209
 23
37.70724640981486
 33
0.0
  0
SOLID
  5
379
330
371
100
AcDbEntity
  8
FORMAT
 62
     0
100
AcDbTrace
 10
-0.3219997366423567
 20
37.72891307648153
 30
0.0
 11
-0.3219997366423567
 21
37.6855797431482
 31
0.0
 12
-0.4519997366423567
 22
37.70724640981486
 32
0.0
 13
-0.4519997366423567
 23
37.70724640981486
 33
0.0
  0
MTEXT
  5
37A
330
371
100
AcDbEntity
  8
FORMAT
 62
     0
100
AcDbMText
 10
38.24337502144486
 20
37.70724640981486
 30
0.0
 40
0.125
 41
0.0
 71
     5
 72
     1
  1
\A1;154.78
  0
POINT
  5
37B
330
371
100
AcDbEntity
  8
DEFPOINTS
 62
     0
100
AcDbPoint
 10
76.93874977953209
 20
28.12969904696407
 30
0.0
  0
POINT
  5
37C
330
371
100
AcDbEntity
  8
DEFPOINTS
 62
     0
100
AcDbPoint
 10
-0.4519997366423567
 20
28.12969904696407
 30
0.0
  0
POINT
  5
37D
330
371
100
AcDbEntity
  8
DEFPOINTS
 62
     0
100
AcDbPoint
 10
-0.4519997366423567
 20
37.70724640981486
 30
0.0
  0
ENDBLK
  5
373
330
371
100
AcDbEntity
  8
0
100
AcDbBlockEnd
  0
BLOCK
  5
3CC
330
3CB
100
AcDbEntity
  8
0
100
AcDbBlockBegin
  2
*D5
 70
     1
 10
0.0
 20
0.0
 30
0.0
  3
*D5
  1
*D5
  0
LINE
  5
3CE
330
3CB
100
AcDbEntity
  8
FORMAT
 62
     0
100
AcDbLine
 10
79.54718473781813
 20
24.64569039380232
 30
0.0
 11
79.54718473781813
 21
33.69202765650354
 31
0.0
  0
LINE
  5
3CF
330
3CB
100
AcDbEntity
  8
FORMAT
 62
     0
100
AcDbLine
 10
2.15643522164369
 20
24.64569039380232
 30
0.0
 11
2.15643522164369
 21
33.69202765650354
 31
0.0
  0
LINE
  5
3D0
330
3CB
100
AcDbEntity
  8
FORMAT
 62
     0
100
AcDbLine
 10
79.41718473781813
 20
33.56702765650354
 30
0.0
 11
41.20347664639758
 21
33.56702765650354
 31
0.0
  0
LINE
  5
3D1
330
3CB
100
AcDbEntity
  8
FORMAT
 62
     0
100
AcDbLine
 10
2.28643522164369
 20
33.56702765650354
 30
0.0
 11
40.50014331306424
 21
33.56702765650354
 31
0.0
  0
SOLID
  5
3D2
330
3CB
100
AcDbEntity
  8
FORMAT
 62
     0
100
AcDbTrace
 10
79.41718473781813
 20
33.54536098983687
 30
0.0
 11
79.41718473781813
 21
33.58869432317021
 31
0.0
 12
79.54718473781813
 22
33.56702765650354
 32
0.0
 13
79.54718473781813
 23
33.56702765650354
 33
0.0
  0
SOLID
  5
3D3
330
3CB
100
AcDbEntity
  8
FORMAT
 62
     0
100
AcDbTrace
 10
2.28643522164369
 20
33.58869432317021
 30
0.0
 11
2.28643522164369
 21
33.54536098983687
 31
0.0
 12
2.15643522164369
 22
33.56702765650354
 32
0.0
 13
2.15643522164369
 23
33.56702765650354
 33
0.0
  0
MTEXT
  5
3D4
330
3CB
100
AcDbEntity
  8
FORMAT
 62
     0
100
AcDbMText
 10
40.85180997973091
 20
33.56702765650354
 30
0.0
 40
0.125
 41
0.0
 71
     5
 72
     1
  1
\A1;154.78
  0
POINT
  5
3D5
330
3CB
100
AcDbEntity
  8
DEFPOINTS
 62
     0
100
AcDbPoint
 10
79.54718473781813
 20
24.59569039380232
 30
0.0
  0
POINT
  5
3D6
330
3CB
100
AcDbEntity
  8
DEFPOINTS
 62
     0
100
AcDbPoint
 10
2.15643522164369
 20
24.59569039380232
 30
0.0
  0
POINT
  5
3D7
330
3CB
100
AcDbEntity
  8
DEFPOINTS
 62
     0
100
AcDbPoint
 10
2.15643522164369
 20
33.56702765650354
 30
0.0
  0
ENDBLK
  5
3CD
330
3CB
100
AcDbEntity
  8
0
100
AcDbBlockEnd
  0
BLOCK
  5
46C
330
46B
100
AcDbEntity
  8
0
100
AcDbBlockBegin
  2
*D6
 70
     1
 10
0.0
 20
0.0
 30
0.0
  3
*D6
  1
*D6
  0
LINE
  5
46E
330
46B
100
AcDbEntity
  8
FORMAT
 62
     0
100
AcDbLine
 10
154.0397922322302
 20
42.53400573386499
 30
0.0
 11
154.0397922322302
 21
58.26641296882179
 31
0.0
  0
LINE
  5
46F
330
46B
100
AcDbEntity
  8
FORMAT
 62
     0
100
AcDbLine
 10
-0.7417068001186431
 20
42.53400573386499
 30
0.0
 11
-0.7417068001186431
 21
58.26641296882179
 31
0.0
  0
LINE
  5
470
330
46B
100
AcDbEntity
  8
FORMAT
 62
     0
100
AcDbLine
 10
153.9097922322302
 20
58.14141296882179
 30
0.0
 11
77.01112604938912
 21
58.14141296882179
 31
0.0
  0
LINE
  5
471
330
46B
100
AcDbEntity
  8
FORMAT
 62
     0
100
AcDbLine
 10
-0.6117068001186431
 20
58.14141296882179
 30
0.0
 11
76.28695938272246
 21
58.14141296882179
 31
0.0
  0
SOLID
  5
472
330
46B
100
AcDbEntity
  8
FORMAT
 62
     0
100
AcDbTrace
 10
153.9097922322302
 20
58.11974630215512
 30
0.0
 11
153.9097922322302
 21
58.16307963548846
 31
0.0
 12
154.0397922322302
 22
58.14141296882179
 32
0.0
 13
154.0397922322302
 23
58.14141296882179
 33
0.0
  0
SOLID
  5
473
330
46B
100
AcDbEntity
  8
FORMAT
 62
     0
100
AcDbTrace
 10
-0.6117068001186431
 20
58.16307963548846
 30
0.0
 11
-0.6117068001186431
 21
58.11974630215512
 31
0.0
 12
-0.7417068001186431
 22
58.14141296882179
 32
0.0
 13
-0.7417068001186431
 23
58.14141296882179
 33
0.0
  0
MTEXT
  5
474
330
46B
100
AcDbEntity
  8
FORMAT
 62
     0
100
AcDbMText
 10
76.64904271605579
 20
58.14141296882179
 30
0.0
 40
0.125
 41
0.0
 71
     5
 72
     1
  1
\A1;309.56
  0
POINT
  5
475
330
46B
100
AcDbEntity
  8
DEFPOINTS
 62
     0
100
AcDbPoint
 10
154.0397922322302
 20
42.484005733865
 30
0.0
  0
POINT
  5
476
330
46B
100
AcDbEntity
  8
DEFPOINTS
 62
     0
100
AcDbPoint
 10
-0.7417068001186431
 20
42.484005733865
 30
0.0
  0
POINT
  5
477
330
46B
100
AcDbEntity
  8
DEFPOINTS
 62
     0
100
AcDbPoint
 10
-0.7417068001186431
 20
58.14141296882179
 30
0.0
  0
ENDBLK
  5
46D
330
46B
100
AcDbEntity
  8
0
100
AcDbBlockEnd
  0
ENDSEC
  0
SECTION
  2
ENTITIES
  0
LINE
  5
4E
330
1F
100
AcDbEntity
  8
0
  6
SLD-SOLID
 62
     5
100
AcDbLine
 10
201.835062418426
 20
87.5603341830024
 30
0.0
 11
157.834319936504
 21
87.56033437107779
 31
0.0
  0
ARC
  5
4F
330
1F
100
AcDbEntity
  8
0
  6
SLD-SOLID
 62
     5
100
AcDbCircle
 10
157.8343211971178
 20
88.35457168300235
 30
0.0
 40
0.7942375
100
AcDbArc
 50
180.0
 51
270.0
  0
LINE
  5
50
330
1F
100
AcDbEntity
  8
0
  6
SLD-SOLID
 62
     5
100
AcDbLine
 10
157.0400848357366
 20
88.35456947438671
 30
0.0
 11
157.0400848357366
 21
89.91102723582569
 31
0.0
  0
ARC
  5
51
330
1F
100
AcDbEntity
  8
0
  6
SLD-SOLID
 62
     5
100
AcDbCircle
 10
156.2458461971177
 20
89.91102703250093
 30
0.0
 40
0.7942375
100
AcDbArc
 50
0.0
 51
90.0
  0
LINE
  5
52
330
1F
100
AcDbEntity
  8
0
  6
SLD-SOLID
 62
     5
100
AcDbLine
 10
156.2458460039592
 20
90.70526233913463
 30
0.0
 11
138.7726215656439
 21
90.70526233913463
 31
0.0
  0
ARC
  5
53
330
1F
100
AcDbEntity
  8
0
  6
SLD-SOLID
 62
     5
100
AcDbCircle
 10
138.7726211971178
 20
91.49950203250091
 30
0.0
 40
0.7942375000000456
100
AcDbArc
 50
180.0000000647011
 51
270.0
  0
ARC
  5
54
330
1F
100
AcDbEntity
  8
0
  6
SLD-SOLID
 62
     5
100
AcDbCircle
 10
137.1841461971177
 20
91.49950203250091
 30
0.0
 40
0.7942375
100
AcDbArc
 50
0.0000000647020661
 51
90.0
  0
LINE
  5
55
330
1F
100
AcDbEntity
  8
0
  6
SLD-SOLID
 62
     5
100
AcDbLine
 10
137.1841476330991
 20
92.2937399976064
 30
0.0
 11
119.7109194663153
 21
92.2937399976064
 31
0.0
  0
ARC
  5
56
330
1F
100
AcDbEntity
  8
0
  6
SLD-SOLID
 62
     5
100
AcDbCircle
 10
119.7109211971177
 20
91.49950203250091
 30
0.0
 40
0.7942375
100
AcDbArc
 50
90.0
 51
180.0000000011
  0
ARC
  5
57
330
1F
100
AcDbEntity
  8
0
  6
SLD-SOLID
 62
     5
100
AcDbCircle
 10
118.1224461971177
 20
91.49950203250091
 30
0.0
 40
0.7942375000000456
100
AcDbArc
 50
270.0
 51
0.0000000011010238
  0
LINE
  5
58
330
1F
100
AcDbEntity
  8
0
  6
SLD-SOLID
 62
     5
100
AcDbLine
 10
118.1224492622391
 20
90.70526233913463
 30
0.0
 11
99.8549822636779
 21
90.70526233913463
 31
0.0
  0
LINE
  5
59
330
1F
100
AcDbEntity
  8
0
  6
SLD-SOLID
 62
     5
100
AcDbLine
 10
99.8549822636779
 20
90.70526233913463
 30
0.0
 11
99.8549822636779
 21
90.25843753012195
 31
0.0
  0
ARC
  5
5A
330
1F
100
AcDbEntity
  8
0
  6
SLD-SOLID
 62
     5
100
AcDbCircle
 10
99.06074619711772
 20
90.25844030042235
 30
0.0
 40
0.7942375
100
AcDbArc
 50
270.0
 51
0.0
  0
LINE
  5
5B
330
1F
100
AcDbEntity
  8
0
  6
SLD-SOLID
 62
     5
100
AcDbLine
 10
99.06074716291053
 20
89.4642024293546
 30
0.0
 11
61.89043254160298
 21
89.4642024293546
 31
0.0
  0
LINE
  5
7A
330
1F
100
AcDbEntity
  8
0
  6
SLD-SOLID
 62
     5
100
AcDbLine
 10
147.6667202400274
 20
115.8463613038282
 30
0.0
 11
124.6520555752754
 21
105.1144472578795
 31
0.0
  0
ARC
  5
7B
330
1F
100
AcDbEntity
  8
0
  6
SLD-SOLID
 62
     5
100
AcDbCircle
 10
155.7225428969539
 20
98.57059223768019
 30
0.0
 40
19.06169999999998
100
AcDbArc
 50
90.0
 51
115.0000000000001
  0
LINE
  5
7C
330
1F
100
AcDbEntity
  8
0
  6
SLD-SOLID
 62
     5
100
AcDbLine
 10
201.8350622633908
 20
117.6322887837001
 30
0.0
 11
155.722542475055
 21
117.6322887837001
 31
0.0
  0
ARC
  5
7D
330
1F
100
AcDbEntity
  8
0
  6
SLD-SOLID
 62
     5
100
AcDbCircle
 10
201.8350623065973
 20
111.2783922376802
 30
0.0
 40
6.3539
100
AcDbArc
 50
0.0
 51
90.0
  0
LINE
  5
7E
330
1F
100
AcDbEntity
  8
0
  6
SLD-SOLID
 62
     5
100
AcDbLine
 10
208.188962418426
 20
93.91423418300239
 30
0.0
 11
208.188962418426
 21
111.2783930535209
 31
0.0
  0
ARC
  5
89
330
1F
100
AcDbEntity
  8
0
  6
SLD-SOLID
 62
     5
100
AcDbCircle
 10
59.76135786326705
 20
96.97461275821883
 30
0.0
 40
6.353900000000022
100
AcDbArc
 50
90.0
 51
180.0
  0
LINE
  5
8A
330
1F
100
AcDbEntity
  8
0
  6
SLD-SOLID
 62
     5
100
AcDbLine
 10
116.5962370687163
 20
103.3285123236121
 30
0.0
 11
59.76135911371458
 21
103.3285123236121
 31
0.0
  0
ARC
  5
8B
330
1F
100
AcDbEntity
  8
0
  6
SLD-SOLID
 62
     5
100
AcDbCircle
 10
116.5962345119069
 20
122.3902127582188
 30
0.0
 40
19.06170000000002
100
AcDbArc
 50
270.0
 51
295.0000000000001
  0
CIRCLE
  5
8C
330
1F
100
AcDbEntity
  8
0
  6
SLD-SOLID
 62
     5
100
AcDbCircle
 10
59.1259678607255
 20
97.61000275821883
 30
0.0
 40
2.249280599999972
  0
CIRCLE
  5
8F
330
1F
100
AcDbEntity
  8
0
  6
SLD-SOLID
 62
     5
100
AcDbCircle
 10
116.9464578632671
 20
98.56308775821881
 30
0.0
 40
2.24928059999995
  0
CIRCLE
  5
90
330
1F
100
AcDbEntity
  8
0
  6
SLD-SOLID
 62
     5
100
AcDbCircle
 10
151.4966657456007
 20
109.6899172376802
 30
0.0
 40
2.24928059999995
  0
CIRCLE
  5
91
330
1F
100
AcDbEntity
  8
0
  6
SLD-SOLID
 62
     5
100
AcDbCircle
 10
203.9778785187152
 20
109.5628392376802
 30
0.0
 40
2.249280599999994
  0
ARC
  5
139
330
1F
100
AcDbEntity
  8
0
  6
SLD-SOLID
 62
     5
100
AcDbCircle
 10
201.835062418426
 20
93.91423418300239
 30
0.0
 40
6.3539
100
AcDbArc
 50
270.0
 51
0.0
  0
ARC
  5
162
330
1F
100
AcDbEntity
  8
0
  6
SLD-SOLID
 62
     5
100
AcDbCircle
 10
59.76136338607694
 20
95.8181028004224
 30
0.0
 40
6.3539
100
AcDbArc
 50
180.0
 51
270.0
  0
LINE
  5
165
330
1F
100
AcDbEntity
  8
FORMAT
 62
     5
100
AcDbLine
 10
53.40745786326703
 20
96.97461275821883
 30
0.0
 11
53.40746338607693
 21
95.8181028004224
 31
0.0
  0
LINE
  5
166
330
1F
100
AcDbEntity
  8
FORMAT
 62
     5
100
AcDbLine
 10
59.76136338607694
 20
89.4642028004224
 30
0.0
 11
61.89043254160298
 21
89.4642024293546
 31
0.0
  0
LINE
  5
2A5
330
1F
100
AcDbEntity
  8
0
  6
SLD-SOLID
 62
     5
100
AcDbLine
 10
59.68358381720084
 20
141.6444020557642
 30
0.0
 11
103.6843262991228
 21
141.6444018676888
 31
0.0
  0
ARC
  5
2A6
330
1F
100
AcDbEntity
  8
0
  6
SLD-SOLID
 62
     5
100
AcDbCircle
 10
103.684325038509
 20
140.8501645557642
 30
0.0
 40
0.7942375
100
AcDbArc
 50
0.0
 51
90.0
  0
LINE
  5
2A7
330
1F
100
AcDbEntity
  8
0
  6
SLD-SOLID
 62
     5
100
AcDbLine
 10
104.4785613998901
 20
140.8501667643798
 30
0.0
 11
104.4785613998901
 21
139.2937090029409
 31
0.0
  0
ARC
  5
2A8
330
1F
100
AcDbEntity
  8
0
  6
SLD-SOLID
 62
     5
100
AcDbCircle
 10
105.272800038509
 20
139.2937092062657
 30
0.0
 40
0.7942375
100
AcDbArc
 50
180.0
 51
270.0
  0
LINE
  5
2A9
330
1F
100
AcDbEntity
  8
0
  6
SLD-SOLID
 62
     5
100
AcDbLine
 10
105.2728002316676
 20
138.499473899632
 30
0.0
 11
122.7460246699828
 21
138.499473899632
 31
0.0
  0
ARC
  5
2AA
330
1F
100
AcDbEntity
  8
0
  6
SLD-SOLID
 62
     5
100
AcDbCircle
 10
122.746025038509
 20
137.7052342062657
 30
0.0
 40
0.7942375000000456
100
AcDbArc
 50
0.0000000647020661
 51
90.0
  0
ARC
  5
2AB
330
1F
100
AcDbEntity
  8
0
  6
SLD-SOLID
 62
     5
100
AcDbCircle
 10
124.334500038509
 20
137.7052342062657
 30
0.0
 40
0.7942375
100
AcDbArc
 50
180.000000064702
 51
270.0
  0
LINE
  5
2AC
330
1F
100
AcDbEntity
  8
0
  6
SLD-SOLID
 62
     5
100
AcDbLine
 10
124.3344986025276
 20
136.9109962411602
 30
0.0
 11
141.8077267693113
 21
136.9109962411602
 31
0.0
  0
ARC
  5
2AD
330
1F
100
AcDbEntity
  8
0
  6
SLD-SOLID
 62
     5
100
AcDbCircle
 10
141.807725038509
 20
137.7052342062657
 30
0.0
 40
0.7942375
100
AcDbArc
 50
270.0
 51
0.0000000011010238
  0
ARC
  5
2AE
330
1F
100
AcDbEntity
  8
0
  6
SLD-SOLID
 62
     5
100
AcDbCircle
 10
143.396200038509
 20
137.7052342062657
 30
0.0
 40
0.7942375000000456
100
AcDbArc
 50
90.0
 51
180.000000001101
  0
LINE
  5
2AF
330
1F
100
AcDbEntity
  8
0
  6
SLD-SOLID
 62
     5
100
AcDbLine
 10
143.3961969733876
 20
138.499473899632
 30
0.0
 11
161.6636639719488
 21
138.499473899632
 31
0.0
  0
LINE
  5
2B0
330
1F
100
AcDbEntity
  8
0
  6
SLD-SOLID
 62
     5
100
AcDbLine
 10
161.6636639719488
 20
138.499473899632
 30
0.0
 11
161.6636639719488
 21
138.9462987086447
 31
0.0
  0
ARC
  5
2B1
330
1F
100
AcDbEntity
  8
0
  6
SLD-SOLID
 62
     5
100
AcDbCircle
 10
162.4579000385091
 20
138.9462959383443
 30
0.0
 40
0.7942375
100
AcDbArc
 50
90.0
 51
180.0
  0
LINE
  5
2B2
330
1F
100
AcDbEntity
  8
0
  6
SLD-SOLID
 62
     5
100
AcDbLine
 10
162.4578990727162
 20
139.740533809412
 30
0.0
 11
199.6282136940237
 21
139.740533809412
 31
0.0
  0
LINE
  5
2B3
330
1F
100
AcDbEntity
  8
0
  6
SLD-SOLID
 62
     5
100
AcDbLine
 10
113.8519259955993
 20
113.3583749349384
 30
0.0
 11
136.8665906603514
 21
124.0902889808872
 31
0.0
  0
ARC
  5
2B4
330
1F
100
AcDbEntity
  8
0
  6
SLD-SOLID
 62
     5
100
AcDbCircle
 10
105.7961033386729
 20
130.6341440010864
 30
0.0
 40
19.06169999999998
100
AcDbArc
 50
270.0
 51
294.9999999999999
  0
LINE
  5
2B5
330
1F
100
AcDbEntity
  8
0
  6
SLD-SOLID
 62
     5
100
AcDbLine
 10
59.68358397223594
 20
111.5724474550665
 30
0.0
 11
105.7961037605718
 21
111.5724474550665
 31
0.0
  0
ARC
  5
2B6
330
1F
100
AcDbEntity
  8
0
  6
SLD-SOLID
 62
     5
100
AcDbCircle
 10
59.68358392902942
 20
117.9263440010864
 30
0.0
 40
6.3539
100
AcDbArc
 50
180.0
 51
270.0
  0
LINE
  5
2B7
102
{ACAD_REACTORS
102
}
330
1F
100
AcDbEntity
  8
0
  6
SLD-SOLID
 62
     5
100
AcDbLine
 10
53.32968381720084
 20
135.2905020557642
 30
0.0
 11
53.32968381720084
 21
117.9263431852457
 31
0.0
  0
ARC
  5
2B8
330
1F
100
AcDbEntity
  8
0
  6
SLD-SOLID
 62
     5
100
AcDbCircle
 10
201.7572883723596
 20
132.2301234805477
 30
0.0
 40
6.353900000000022
100
AcDbArc
 50
270.0
 51
0.0
  0
LINE
  5
2B9
330
1F
100
AcDbEntity
  8
0
  6
SLD-SOLID
 62
     5
100
AcDbLine
 10
144.9224091669104
 20
125.8762239151546
 30
0.0
 11
201.7572871219121
 21
125.8762239151545
 31
0.0
  0
ARC
  5
2BA
330
1F
100
AcDbEntity
  8
0
  6
SLD-SOLID
 62
     5
100
AcDbCircle
 10
144.9224117237198
 20
106.8145234805478
 30
0.0
 40
19.06170000000002
100
AcDbArc
 50
90.0
 51
115.0
  0
CIRCLE
  5
2BB
330
1F
100
AcDbEntity
  8
0
  6
SLD-SOLID
 62
     5
100
AcDbCircle
 10
202.3926783749012
 20
131.5947334805477
 30
0.0
 40
2.249280599999972
  0
CIRCLE
  5
2BC
330
1F
100
AcDbEntity
  8
0
  6
SLD-SOLID
 62
     5
100
AcDbCircle
 10
144.5721883723596
 20
130.6416484805478
 30
0.0
 40
2.24928059999995
  0
CIRCLE
  5
2BD
330
1F
100
AcDbEntity
  8
0
  6
SLD-SOLID
 62
     5
100
AcDbCircle
 10
110.021980490026
 20
119.5148190010865
 30
0.0
 40
2.24928059999995
  0
CIRCLE
  5
2BE
330
1F
100
AcDbEntity
  8
0
  6
SLD-SOLID
 62
     5
100
AcDbCircle
 10
57.5407677169116
 20
119.6418970010864
 30
0.0
 40
2.249280599999994
  0
ARC
  5
2BF
330
1F
100
AcDbEntity
  8
0
  6
SLD-SOLID
 62
     5
100
AcDbCircle
 10
59.68358381720084
 20
135.2905020557642
 30
0.0
 40
6.3539
100
AcDbArc
 50
90.0
 51
180.0
  0
ARC
  5
2C0
330
1F
100
AcDbEntity
  8
0
  6
SLD-SOLID
 62
     5
100
AcDbCircle
 10
201.7572828495497
 20
133.3866334383442
 30
0.0
 40
6.3539
100
AcDbArc
 50
0.0
 51
90.0
  0
LINE
  5
2C1
102
{ACAD_REACTORS
102
}
330
1F
100
AcDbEntity
  8
FORMAT
 62
     5
100
AcDbLine
 10
208.1111883723599
 20
132.2301234805477
 30
0.0
 11
208.1111828495497
 21
133.3866334383442
 31
0.0
  0
LINE
  5
2C2
330
1F
100
AcDbEntity
  8
FORMAT
 62
     5
100
AcDbLine
 10
201.7572828495497
 20
139.7405334383442
 30
0.0
 11
199.6282136940237
 21
139.740533809412
 31
0.0
  0
LWPOLYLINE
  5
479
330
1F
100
AcDbEntity
  8
FORMAT
100
AcDbPolyline
 90
        4
 70
     1
 43
0.0
 10
38.42926107443296
 20
84.11988033176723
 10
38.42926107443296
 20
265.1198803317673
 10
219.429261074433
 20
265.1198803317673
 10
219.429261074433
 20
84.11988033176723
  0
LINE
  5
7F7
330
1F
100
AcDbEntity
  8
0
  6
SLD-SOLID
 62
     5
100
AcDbLine
 10
198.5901637505368
 20
168.0138943047874
 30
0.0
 11
155.6398010282536
 21
168.0138943047874
 31
0.0
  0
LINE
  5
7F8
330
1F
100
AcDbEntity
  8
0
  6
SLD-SOLID
 62
     5
100
AcDbLine
 10
155.6398010282536
 20
168.0138943047874
 30
0.0
 11
155.6398010282536
 21
145.8521219148963
 31
0.0
  0
ARC
  5
7F9
330
1F
100
AcDbEntity
  8
0
  6
SLD-SOLID
 62
     5
100
AcDbCircle
 10
155.6235563730251
 20
145.0580496264626
 30
0.0
 40
0.794237499999977
100
AcDbArc
 50
88.8280469390988
 51
90.0
  0
ARC
  5
7FA
330
1F
100
AcDbEntity
  8
0
  6
SLD-SOLID
 62
     5
100
AcDbCircle
 10
138.1503313730251
 20
146.6465246264626
 30
0.0
 40
0.7942375
100
AcDbArc
 50
180.0
 51
270.0
  0
ARC
  5
7FB
330
1F
100
AcDbEntity
  8
0
  6
SLD-SOLID
 62
     5
100
AcDbCircle
 10
136.561856373025
 20
146.646524623921
 30
0.0
 40
0.7942375
100
AcDbArc
 50
0.0000001293979812
 51
90.0
  0
ARC
  5
7FC
330
1F
100
AcDbEntity
  8
0
  6
SLD-SOLID
 62
     5
100
AcDbCircle
 10
119.0886313730251
 20
146.646524623921
 30
0.0
 40
0.7942375
100
AcDbArc
 50
90.0
 51
180.0000000021979
  0
ARC
  5
7FD
330
1F
100
AcDbEntity
  8
0
  6
SLD-SOLID
 62
     5
100
AcDbCircle
 10
117.500156373025
 20
146.646524623921
 30
0.0
 40
0.7942375
100
AcDbArc
 50
270.0
 51
0.0
  0
ARC
  5
7FE
330
1F
100
AcDbEntity
  8
0
  6
SLD-SOLID
 62
     5
100
AcDbCircle
 10
98.43845637302502
 20
145.405462894384
 30
0.0
 40
0.794237500000023
100
AcDbArc
 50
270.0
 51
0.0
  0
LINE
  5
7FF
330
1F
100
AcDbEntity
  8
0
  6
SLD-SOLID
 62
     5
100
AcDbLine
 10
198.5901637505368
 20
142.707357961331
 30
0.0
 11
198.5901637505368
 21
168.0138943047874
 31
0.0
  0
CIRCLE
  5
800
330
1F
100
AcDbEntity
  8
0
  6
SLD-SOLID
 62
     5
100
AcDbCircle
 10
203.3555886946225
 20
164.7098618316418
 30
0.0
 40
2.249280596152734
  0
CIRCLE
  5
801
330
1F
100
AcDbEntity
  8
0
  6
SLD-SOLID
 62
     5
100
AcDbCircle
 10
150.874375921508
 20
164.8369398316418
 30
0.0
 40
2.249280596152734
  0
CIRCLE
  5
802
330
1F
100
AcDbEntity
  8
0
  6
SLD-SOLID
 62
     5
100
AcDbCircle
 10
116.3241680391744
 20
153.7101103521805
 30
0.0
 40
2.249280599999994
  0
CIRCLE
  5
803
330
1F
100
AcDbEntity
  8
0
  6
SLD-SOLID
 62
     5
100
AcDbCircle
 10
58.50367803917436
 20
152.7570253521805
 30
0.0
 40
2.24928059615278
  0
LINE
  5
804
330
1F
100
AcDbEntity
  8
0
  6
SLD-SOLID
 62
     5
100
AcDbLine
 10
147.0444304769321
 20
170.9933774396859
 30
0.0
 11
124.0297658121801
 21
160.2614708481326
 31
0.0
  0
ARC
  5
805
330
1F
100
AcDbEntity
  8
0
  6
SLD-SOLID
 62
     5
100
AcDbCircle
 10
155.1002530728613
 20
153.7176148316418
 30
0.0
 40
19.0617
100
AcDbArc
 50
90.0
 51
115.0
  0
LINE
  5
806
330
1F
100
AcDbEntity
  8
0
  6
SLD-SOLID
 62
     5
100
AcDbLine
 10
201.212772266472
 20
172.7793198308904
 30
0.0
 11
155.1002527119598
 21
172.7793198308904
 31
0.0
  0
ARC
  5
807
330
1F
100
AcDbEntity
  8
0
  6
SLD-SOLID
 62
     5
100
AcDbCircle
 10
201.2127724825046
 20
166.4254148316418
 30
0.0
 40
6.3539
100
AcDbArc
 50
0.0
 51
90.0
  0
LINE
  5
808
330
1F
100
AcDbEntity
  8
0
  6
SLD-SOLID
 62
     5
100
AcDbLine
 10
115.973947305621
 20
158.4755359138652
 30
0.0
 11
59.13906189622384
 21
158.4755359138652
 31
0.0
  0
ARC
  5
809
330
1F
100
AcDbEntity
  8
0
  6
SLD-SOLID
 62
     5
100
AcDbCircle
 10
115.9739446852727
 20
177.5372353521805
 30
0.0
 40
19.06170000000002
100
AcDbArc
 50
270.0
 51
294.9999999999998
  0
LINE
  5
80A
330
1F
100
AcDbEntity
  8
0
  6
SLD-SOLID
 62
     5
100
AcDbLine
 10
155.6235562434056
 20
145.8522859293878
 30
0.0
 11
138.1503318025487
 21
145.8522859293878
 31
0.0
  0
LINE
  5
80B
330
1F
100
AcDbEntity
  8
0
  6
SLD-SOLID
 62
     5
100
AcDbLine
 10
136.5618541440769
 20
147.4407635878595
 30
0.0
 11
119.0886297032201
 21
147.4407635878595
 31
0.0
  0
LINE
  5
80C
330
1F
100
AcDbEntity
  8
0
  6
SLD-SOLID
 62
     5
100
AcDbLine
 10
117.5001594991438
 20
145.8522859293878
 30
0.0
 11
99.23269250312421
 21
145.8522859293878
 31
0.0
  0
LINE
  5
80D
330
1F
100
AcDbEntity
  8
0
  6
SLD-SOLID
 62
     5
100
AcDbLine
 10
99.23269250312421
 20
145.4054611203752
 30
0.0
 11
99.23269250312421
 21
145.8522859293878
 31
0.0
  0
LINE
  5
80E
330
1F
100
AcDbEntity
  8
0
  6
SLD-SOLID
 62
     5
100
AcDbLine
 10
98.43845739981526
 20
144.6112260196078
 30
0.0
 11
59.13906616858623
 21
144.6112260196078
 31
0.0
  0
ARC
  5
80F
330
1F
100
AcDbEntity
  8
0
  6
SLD-SOLID
 62
     5
100
AcDbCircle
 10
59.13906189622384
 20
152.1216359138652
 30
0.0
 40
6.353900000000022
100
AcDbArc
 50
90.0
 51
179.9999999999995
  0
ARC
  5
810
330
1F
100
AcDbEntity
  8
0
  6
SLD-SOLID
 62
     5
100
AcDbCircle
 10
59.13906616858623
 20
150.9651260196078
 30
0.0
 40
6.353900000000022
100
AcDbArc
 50
180.0
 51
270.0
  0
LINE
  5
811
330
1F
100
AcDbEntity
  8
0
 62
     5
100
AcDbLine
 10
52.78516616858622
 20
150.9651260196078
 30
0.0
 11
52.78516189622377
 21
152.1216359138652
 31
0.0
  0
ARC
  5
812
330
1F
100
AcDbEntity
  8
0
  6
SLD-SOLID
 62
     5
100
AcDbCircle
 10
201.2127676586238
 20
149.061257961331
 30
0.0
 40
6.3539
100
AcDbArc
 50
270.0
 51
0.0
  0
LINE
  5
813
330
1F
100
AcDbEntity
  8
0
 62
     5
100
AcDbLine
 10
201.2127676586238
 20
142.707357961331
 30
0.0
 11
198.5901637505368
 21
142.707357961331
 31
0.0
  0
LINE
  5
814
330
1F
100
AcDbEntity
  8
0
 62
     5
100
AcDbLine
 10
207.5666724825047
 20
166.4254148316418
 30
0.0
 11
207.5666676586238
 21
149.061257961331
 31
0.0
  0
LINE
  5
815
330
1F
100
AcDbEntity
  8
0
  6
SLD-SOLID
 62
     5
100
AcDbLine
 10
62.81170700477549
 20
171.0722349182448
 30
0.0
 11
105.7620697270587
 21
171.0722349182448
 31
0.0
  0
LINE
  5
816
330
1F
100
AcDbEntity
  8
0
  6
SLD-SOLID
 62
     5
100
AcDbLine
 10
105.7620697270587
 20
171.0722349182448
 30
0.0
 11
105.7620697270587
 21
193.2340073081359
 31
0.0
  0
ARC
  5
817
330
1F
100
AcDbEntity
  8
0
  6
SLD-SOLID
 62
     5
100
AcDbCircle
 10
105.7783143822872
 20
194.0280795965696
 30
0.0
 40
0.794237499999977
100
AcDbArc
 50
268.8280469391029
 51
270.0
  0
ARC
  5
818
330
1F
100
AcDbEntity
  8
0
  6
SLD-SOLID
 62
     5
100
AcDbCircle
 10
123.2515393822872
 20
192.4396045965696
 30
0.0
 40
0.7942375
100
AcDbArc
 50
0.0
 51
90.0
  0
ARC
  5
819
330
1F
100
AcDbEntity
  8
0
  6
SLD-SOLID
 62
     5
100
AcDbCircle
 10
124.8400143822872
 20
192.4396045991112
 30
0.0
 40
0.7942375
100
AcDbArc
 50
180.0000001294
 51
270.0
  0
ARC
  5
81A
330
1F
100
AcDbEntity
  8
0
  6
SLD-SOLID
 62
     5
100
AcDbCircle
 10
142.3132393822872
 20
192.4396045991112
 30
0.0
 40
0.7942375
100
AcDbArc
 50
270.0
 51
0.000000002197947
  0
ARC
  5
81B
330
1F
100
AcDbEntity
  8
0
  6
SLD-SOLID
 62
     5
100
AcDbCircle
 10
143.9017143822872
 20
192.4396045991112
 30
0.0
 40
0.7942375
100
AcDbArc
 50
90.0
 51
180.0
  0
ARC
  5
81C
330
1F
100
AcDbEntity
  8
0
  6
SLD-SOLID
 62
     5
100
AcDbCircle
 10
162.9634143822872
 20
193.6806663286482
 30
0.0
 40
0.794237500000023
100
AcDbArc
 50
90.0
 51
180.0
  0
LINE
  5
81D
330
1F
100
AcDbEntity
  8
0
  6
SLD-SOLID
 62
     5
100
AcDbLine
 10
62.81170700477549
 20
196.3787712617012
 30
0.0
 11
62.81170700477549
 21
171.0722349182448
 31
0.0
  0
CIRCLE
  5
81E
330
1F
100
AcDbEntity
  8
0
  6
SLD-SOLID
 62
     5
100
AcDbCircle
 10
58.0462820606898
 20
174.3762673913904
 30
0.0
 40
2.249280596152734
  0
CIRCLE
  5
81F
330
1F
100
AcDbEntity
  8
0
  6
SLD-SOLID
 62
     5
100
AcDbCircle
 10
110.5274948338043
 20
174.2491893913904
 30
0.0
 40
2.249280596152734
  0
CIRCLE
  5
820
330
1F
100
AcDbEntity
  8
0
  6
SLD-SOLID
 62
     5
100
AcDbCircle
 10
145.0777027161379
 20
185.3760188708517
 30
0.0
 40
2.249280599999994
  0
CIRCLE
  5
821
330
1F
100
AcDbEntity
  8
0
  6
SLD-SOLID
 62
     5
100
AcDbCircle
 10
202.8981927161378
 20
186.3291038708517
 30
0.0
 40
2.24928059615278
  0
LINE
  5
822
330
1F
100
AcDbEntity
  8
0
  6
SLD-SOLID
 62
     5
100
AcDbLine
 10
114.3574402783801
 20
168.0927517833464
 30
0.0
 11
137.3721049431322
 21
178.8246583748996
 31
0.0
  0
ARC
  5
823
330
1F
100
AcDbEntity
  8
0
  6
SLD-SOLID
 62
     5
100
AcDbCircle
 10
106.301617682451
 20
185.3685143913904
 30
0.0
 40
19.0617
100
AcDbArc
 50
270.0
 51
295.0000000000001
  0
LINE
  5
824
330
1F
100
AcDbEntity
  8
0
  6
SLD-SOLID
 62
     5
100
AcDbLine
 10
60.18909848884024
 20
166.306809392142
 30
0.0
 11
106.3016180433525
 21
166.306809392142
 31
0.0
  0
ARC
  5
825
330
1F
100
AcDbEntity
  8
0
  6
SLD-SOLID
 62
     5
100
AcDbCircle
 10
60.18909827280766
 20
172.6607143913904
 30
0.0
 40
6.3539
100
AcDbArc
 50
180.0
 51
270.0
  0
LINE
  5
826
330
1F
100
AcDbEntity
  8
0
  6
SLD-SOLID
 62
     5
100
AcDbLine
 10
145.4279234496912
 20
180.610593309167
 30
0.0
 11
202.2628088590884
 21
180.610593309167
 31
0.0
  0
ARC
  5
827
330
1F
100
AcDbEntity
  8
0
  6
SLD-SOLID
 62
     5
100
AcDbCircle
 10
145.4279260700396
 20
161.5488938708518
 30
0.0
 40
19.06170000000002
100
AcDbArc
 50
89.99999999999983
 51
115.0000000000002
  0
LINE
  5
828
330
1F
100
AcDbEntity
  8
0
  6
SLD-SOLID
 62
     5
100
AcDbLine
 10
105.7783145119068
 20
193.2338432936444
 30
0.0
 11
123.2515389527636
 21
193.2338432936444
 31
0.0
  0
LINE
  5
829
330
1F
100
AcDbEntity
  8
0
  6
SLD-SOLID
 62
     5
100
AcDbLine
 10
124.8400166112353
 20
191.6453656351727
 30
0.0
 11
142.3132410520921
 21
191.6453656351727
 31
0.0
  0
LINE
  5
82A
330
1F
100
AcDbEntity
  8
0
  6
SLD-SOLID
 62
     5
100
AcDbLine
 10
143.9017112561684
 20
193.2338432936444
 30
0.0
 11
162.169178252188
 21
193.2338432936444
 31
0.0
  0
LINE
  5
82B
330
1F
100
AcDbEntity
  8
0
  6
SLD-SOLID
 62
     5
100
AcDbLine
 10
162.169178252188
 20
193.6806681026571
 30
0.0
 11
162.169178252188
 21
193.2338432936444
 31
0.0
  0
LINE
  5
82C
330
1F
100
AcDbEntity
  8
0
  6
SLD-SOLID
 62
     5
100
AcDbLine
 10
162.963413355497
 20
194.4749032034245
 30
0.0
 11
202.262804586726
 21
194.4749032034245
 31
0.0
  0
ARC
  5
82D
330
1F
100
AcDbEntity
  8
0
  6
SLD-SOLID
 62
     5
100
AcDbCircle
 10
202.2628088590884
 20
186.964493309167
 30
0.0
 40
6.353900000000022
100
AcDbArc
 50
270.0
 51
359.9999999999995
  0
ARC
  5
82E
330
1F
100
AcDbEntity
  8
0
  6
SLD-SOLID
 62
     5
100
AcDbCircle
 10
202.262804586726
 20
188.1210032034244
 30
0.0
 40
6.353900000000022
100
AcDbArc
 50
0.0
 51
90.0
  0
LINE
  5
82F
330
1F
100
AcDbEntity
  8
0
 62
     5
100
AcDbLine
 10
208.616704586726
 20
188.1210032034244
 30
0.0
 11
208.6167088590884
 21
186.964493309167
 31
0.0
  0
ARC
  5
830
330
1F
100
AcDbEntity
  8
0
  6
SLD-SOLID
 62
     5
100
AcDbCircle
 10
60.18910309668854
 20
190.0248712617013
 30
0.0
 40
6.3539
100
AcDbArc
 50
90.0
 51
180.0
  0
LINE
  5
831
330
1F
100
AcDbEntity
  8
0
 62
     5
100
AcDbLine
 10
60.18910309668854
 20
196.3787712617012
 30
0.0
 11
62.81170700477549
 21
196.3787712617012
 31
0.0
  0
LINE
  5
832
330
1F
100
AcDbEntity
  8
0
 62
     5
100
AcDbLine
 10
53.83519827280767
 20
172.6607143913904
 30
0.0
 11
53.83520309668853
 21
190.0248712617013
 31
0.0
  0
LINE
  5
89B
330
1F
100
AcDbEntity
  8
0
  6
SLD-SOLID
 62
     5
100
AcDbLine
 10
198.5901637505368
 20
225.9720182340847
 30
0.0
 11
155.6398010282536
 21
225.9720182340847
 31
0.0
  0
LINE
  5
89C
330
1F
100
AcDbEntity
  8
0
  6
SLD-SOLID
 62
     5
100
AcDbLine
 10
155.6398010282536
 20
225.9720182340847
 30
0.0
 11
155.6398010282536
 21
203.8102458441936
 31
0.0
  0
ARC
  5
89D
330
1F
100
AcDbEntity
  8
0
  6
SLD-SOLID
 62
     5
100
AcDbCircle
 10
155.6235563730251
 20
203.0161735557599
 30
0.0
 40
0.794237499999977
100
AcDbArc
 50
88.8280469390988
 51
90.0
  0
ARC
  5
89E
330
1F
100
AcDbEntity
  8
0
  6
SLD-SOLID
 62
     5
100
AcDbCircle
 10
138.1503313730251
 20
204.6046485557599
 30
0.0
 40
0.7942375
100
AcDbArc
 50
180.0
 51
270.0
  0
ARC
  5
89F
330
1F
100
AcDbEntity
  8
0
  6
SLD-SOLID
 62
     5
100
AcDbCircle
 10
136.561856373025
 20
204.6046485532183
 30
0.0
 40
0.7942375
100
AcDbArc
 50
0.0000001293979812
 51
90.0
  0
ARC
  5
8A0
330
1F
100
AcDbEntity
  8
0
  6
SLD-SOLID
 62
     5
100
AcDbCircle
 10
119.0886313730251
 20
204.6046485532183
 30
0.0
 40
0.7942375
100
AcDbArc
 50
90.0
 51
180.0000000021979
  0
ARC
  5
8A1
330
1F
100
AcDbEntity
  8
0
  6
SLD-SOLID
 62
     5
100
AcDbCircle
 10
117.500156373025
 20
204.6046485532183
 30
0.0
 40
0.7942375
100
AcDbArc
 50
270.0
 51
0.0
  0
ARC
  5
8A2
330
1F
100
AcDbEntity
  8
0
  6
SLD-SOLID
 62
     5
100
AcDbCircle
 10
98.43845637302502
 20
203.3635868236813
 30
0.0
 40
0.794237500000023
100
AcDbArc
 50
270.0
 51
0.0
  0
LINE
  5
8A3
330
1F
100
AcDbEntity
  8
0
  6
SLD-SOLID
 62
     5
100
AcDbLine
 10
198.5901637505368
 20
200.6654818906283
 30
0.0
 11
198.5901637505368
 21
225.9720182340847
 31
0.0
  0
CIRCLE
  5
8A4
330
1F
100
AcDbEntity
  8
0
  6
SLD-SOLID
 62
     5
100
AcDbCircle
 10
203.3555886946225
 20
222.6679857609391
 30
0.0
 40
2.249280596152734
  0
CIRCLE
  5
8A5
330
1F
100
AcDbEntity
  8
0
  6
SLD-SOLID
 62
     5
100
AcDbCircle
 10
150.874375921508
 20
222.7950637609391
 30
0.0
 40
2.249280596152734
  0
CIRCLE
  5
8A6
330
1F
100
AcDbEntity
  8
0
  6
SLD-SOLID
 62
     5
100
AcDbCircle
 10
116.3241680391744
 20
211.6682342814778
 30
0.0
 40
2.249280599999994
  0
CIRCLE
  5
8A7
330
1F
100
AcDbEntity
  8
0
  6
SLD-SOLID
 62
     5
100
AcDbCircle
 10
58.50367803917436
 20
210.7151492814778
 30
0.0
 40
2.24928059615278
  0
LINE
  5
8A8
330
1F
100
AcDbEntity
  8
0
  6
SLD-SOLID
 62
     5
100
AcDbLine
 10
147.0444304769321
 20
228.9515013689832
 30
0.0
 11
124.0297658121801
 21
218.2195947774299
 31
0.0
  0
ARC
  5
8A9
330
1F
100
AcDbEntity
  8
0
  6
SLD-SOLID
 62
     5
100
AcDbCircle
 10
155.1002530728613
 20
211.6757387609391
 30
0.0
 40
19.0617
100
AcDbArc
 50
90.0
 51
115.0
  0
LINE
  5
8AA
330
1F
100
AcDbEntity
  8
0
  6
SLD-SOLID
 62
     5
100
AcDbLine
 10
201.212772266472
 20
230.7374437601877
 30
0.0
 11
155.1002527119598
 21
230.7374437601877
 31
0.0
  0
ARC
  5
8AB
330
1F
100
AcDbEntity
  8
0
  6
SLD-SOLID
 62
     5
100
AcDbCircle
 10
201.2127724825046
 20
224.3835387609391
 30
0.0
 40
6.3539
100
AcDbArc
 50
0.0
 51
90.0
  0
LINE
  5
8AC
330
1F
100
AcDbEntity
  8
0
  6
SLD-SOLID
 62
     5
100
AcDbLine
 10
115.973947305621
 20
216.4336598431625
 30
0.0
 11
59.13906189622384
 21
216.4336598431625
 31
0.0
  0
ARC
  5
8AD
330
1F
100
AcDbEntity
  8
0
  6
SLD-SOLID
 62
     5
100
AcDbCircle
 10
115.9739446852727
 20
235.4953592814778
 30
0.0
 40
19.06170000000002
100
AcDbArc
 50
270.0
 51
294.9999999999998
  0
LINE
  5
8AE
330
1F
100
AcDbEntity
  8
0
  6
SLD-SOLID
 62
     5
100
AcDbLine
 10
155.6235562434056
 20
203.8104098586851
 30
0.0
 11
138.1503318025487
 21
203.8104098586851
 31
0.0
  0
LINE
  5
8AF
330
1F
100
AcDbEntity
  8
0
  6
SLD-SOLID
 62
     5
100
AcDbLine
 10
136.5618541440769
 20
205.3988875171569
 30
0.0
 11
119.0886297032201
 21
205.3988875171569
 31
0.0
  0
LINE
  5
8B0
330
1F
100
AcDbEntity
  8
0
  6
SLD-SOLID
 62
     5
100
AcDbLine
 10
117.5001594991438
 20
203.8104098586851
 30
0.0
 11
99.23269250312421
 21
203.8104098586851
 31
0.0
  0
LINE
  5
8B1
330
1F
100
AcDbEntity
  8
0
  6
SLD-SOLID
 62
     5
100
AcDbLine
 10
99.23269250312421
 20
203.3635850496725
 30
0.0
 11
99.23269250312421
 21
203.8104098586851
 31
0.0
  0
LINE
  5
8B2
330
1F
100
AcDbEntity
  8
0
  6
SLD-SOLID
 62
     5
100
AcDbLine
 10
98.43845739981526
 20
202.5693499489051
 30
0.0
 11
59.13906616858623
 21
202.5693499489051
 31
0.0
  0
ARC
  5
8B3
330
1F
100
AcDbEntity
  8
0
  6
SLD-SOLID
 62
     5
100
AcDbCircle
 10
59.13906189622384
 20
210.0797598431625
 30
0.0
 40
6.353900000000022
100
AcDbArc
 50
90.0
 51
179.9999999999995
  0
ARC
  5
8B4
330
1F
100
AcDbEntity
  8
0
  6
SLD-SOLID
 62
     5
100
AcDbCircle
 10
59.13906616858623
 20
208.9232499489051
 30
0.0
 40
6.353900000000022
100
AcDbArc
 50
180.0
 51
270.0
  0
LINE
  5
8B5
330
1F
100
AcDbEntity
  8
0
 62
     5
100
AcDbLine
 10
52.78516616858622
 20
208.9232499489051
 30
0.0
 11
52.78516189622377
 21
210.0797598431625
 31
0.0
  0
ARC
  5
8B6
330
1F
100
AcDbEntity
  8
0
  6
SLD-SOLID
 62
     5
100
AcDbCircle
 10
201.2127676586238
 20
207.0193818906283
 30
0.0
 40
6.3539
100
AcDbArc
 50
270.0
 51
0.0
  0
LINE
  5
8B7
330
1F
100
AcDbEntity
  8
0
 62
     5
100
AcDbLine
 10
201.2127676586238
 20
200.6654818906283
 30
0.0
 11
198.5901637505368
 21
200.6654818906283
 31
0.0
  0
LINE
  5
8B8
330
1F
100
AcDbEntity
  8
0
 62
     5
100
AcDbLine
 10
207.5666724825047
 20
224.3835387609391
 30
0.0
 11
207.5666676586238
 21
207.0193818906283
 31
0.0
  0
LINE
  5
8B9
330
1F
100
AcDbEntity
  8
0
  6
SLD-SOLID
 62
     5
100
AcDbLine
 10
62.81170700477549
 20
229.0303588475421
 30
0.0
 11
105.7620697270587
 21
229.0303588475421
 31
0.0
  0
LINE
  5
8BA
330
1F
100
AcDbEntity
  8
0
  6
SLD-SOLID
 62
     5
100
AcDbLine
 10
105.7620697270587
 20
229.0303588475421
 30
0.0
 11
105.7620697270587
 21
251.1921312374332
 31
0.0
  0
ARC
  5
8BB
330
1F
100
AcDbEntity
  8
0
  6
SLD-SOLID
 62
     5
100
AcDbCircle
 10
105.7783143822872
 20
251.9862035258669
 30
0.0
 40
0.794237499999977
100
AcDbArc
 50
268.8280469391029
 51
270.0
  0
ARC
  5
8BC
330
1F
100
AcDbEntity
  8
0
  6
SLD-SOLID
 62
     5
100
AcDbCircle
 10
123.2515393822872
 20
250.3977285258669
 30
0.0
 40
0.7942375
100
AcDbArc
 50
0.0
 51
90.0
  0
ARC
  5
8BD
330
1F
100
AcDbEntity
  8
0
  6
SLD-SOLID
 62
     5
100
AcDbCircle
 10
124.8400143822872
 20
250.3977285284085
 30
0.0
 40
0.7942375
100
AcDbArc
 50
180.0000001294
 51
270.0
  0
ARC
  5
8BE
330
1F
100
AcDbEntity
  8
0
  6
SLD-SOLID
 62
     5
100
AcDbCircle
 10
142.3132393822872
 20
250.3977285284085
 30
0.0
 40
0.7942375
100
AcDbArc
 50
270.0
 51
0.000000002197947
  0
ARC
  5
8BF
330
1F
100
AcDbEntity
  8
0
  6
SLD-SOLID
 62
     5
100
AcDbCircle
 10
143.9017143822872
 20
250.3977285284085
 30
0.0
 40
0.7942375
100
AcDbArc
 50
90.0
 51
180.0
  0
ARC
  5
8C0
330
1F
100
AcDbEntity
  8
0
  6
SLD-SOLID
 62
     5
100
AcDbCircle
 10
162.9634143822872
 20
251.6387902579455
 30
0.0
 40
0.794237500000023
100
AcDbArc
 50
90.0
 51
180.0
  0
LINE
  5
8C1
330
1F
100
AcDbEntity
  8
0
  6
SLD-SOLID
 62
     5
100
AcDbLine
 10
62.81170700477549
 20
254.3368951909985
 30
0.0
 11
62.81170700477549
 21
229.0303588475421
 31
0.0
  0
CIRCLE
  5
8C2
330
1F
100
AcDbEntity
  8
0
  6
SLD-SOLID
 62
     5
100
AcDbCircle
 10
58.0462820606898
 20
232.3343913206877
 30
0.0
 40
2.249280596152734
  0
CIRCLE
  5
8C3
330
1F
100
AcDbEntity
  8
0
  6
SLD-SOLID
 62
     5
100
AcDbCircle
 10
110.5274948338043
 20
232.2073133206877
 30
0.0
 40
2.249280596152734
  0
CIRCLE
  5
8C4
330
1F
100
AcDbEntity
  8
0
  6
SLD-SOLID
 62
     5
100
AcDbCircle
 10
145.0777027161379
 20
243.334142800149
 30
0.0
 40
2.249280599999994
  0
CIRCLE
  5
8C5
330
1F
100
AcDbEntity
  8
0
  6
SLD-SOLID
 62
     5
100
AcDbCircle
 10
202.8981927161378
 20
244.287227800149
 30
0.0
 40
2.24928059615278
  0
LINE
  5
8C6
330
1F
100
AcDbEntity
  8
0
  6
SLD-SOLID
 62
     5
100
AcDbLine
 10
114.3574402783801
 20
226.0508757126437
 30
0.0
 11
137.3721049431322
 21
236.7827823041969
 31
0.0
  0
ARC
  5
8C7
330
1F
100
AcDbEntity
  8
0
  6
SLD-SOLID
 62
     5
100
AcDbCircle
 10
106.301617682451
 20
243.3266383206877
 30
0.0
 40
19.0617
100
AcDbArc
 50
270.0
 51
295.0000000000001
  0
LINE
  5
8C8
330
1F
100
AcDbEntity
  8
0
  6
SLD-SOLID
 62
     5
100
AcDbLine
 10
60.18909848884024
 20
224.2649333214393
 30
0.0
 11
106.3016180433525
 21
224.2649333214393
 31
0.0
  0
ARC
  5
8C9
330
1F
100
AcDbEntity
  8
0
  6
SLD-SOLID
 62
     5
100
AcDbCircle
 10
60.18909827280766
 20
230.6188383206877
 30
0.0
 40
6.3539
100
AcDbArc
 50
180.0
 51
270.0
  0
LINE
  5
8CA
330
1F
100
AcDbEntity
  8
0
  6
SLD-SOLID
 62
     5
100
AcDbLine
 10
145.4279234496912
 20
238.5687172384643
 30
0.0
 11
202.2628088590884
 21
238.5687172384643
 31
0.0
  0
ARC
  5
8CB
330
1F
100
AcDbEntity
  8
0
  6
SLD-SOLID
 62
     5
100
AcDbCircle
 10
145.4279260700396
 20
219.5070178001491
 30
0.0
 40
19.06170000000002
100
AcDbArc
 50
89.99999999999983
 51
115.0000000000002
  0
LINE
  5
8CC
330
1F
100
AcDbEntity
  8
0
  6
SLD-SOLID
 62
     5
100
AcDbLine
 10
105.7783145119068
 20
251.1919672229417
 30
0.0
 11
123.2515389527636
 21
251.1919672229417
 31
0.0
  0
LINE
  5
8CD
330
1F
100
AcDbEntity
  8
0
  6
SLD-SOLID
 62
     5
100
AcDbLine
 10
124.8400166112353
 20
249.60348956447
 30
0.0
 11
142.3132410520921
 21
249.60348956447
 31
0.0
  0
LINE
  5
8CE
330
1F
100
AcDbEntity
  8
0
  6
SLD-SOLID
 62
     5
100
AcDbLine
 10
143.9017112561684
 20
251.1919672229417
 30
0.0
 11
162.169178252188
 21
251.1919672229417
 31
0.0
  0
LINE
  5
8CF
330
1F
100
AcDbEntity
  8
0
  6
SLD-SOLID
 62
     5
100
AcDbLine
 10
162.169178252188
 20
251.6387920319544
 30
0.0
 11
162.169178252188
 21
251.1919672229417
 31
0.0
  0
LINE
  5
8D0
330
1F
100
AcDbEntity
  8
0
  6
SLD-SOLID
 62
     5
100
AcDbLine
 10
162.963413355497
 20
252.4330271327218
 30
0.0
 11
202.262804586726
 21
252.4330271327218
 31
0.0
  0
ARC
  5
8D1
330
1F
100
AcDbEntity
  8
0
  6
SLD-SOLID
 62
     5
100
AcDbCircle
 10
202.2628088590884
 20
244.9226172384643
 30
0.0
 40
6.353900000000022
100
AcDbArc
 50
270.0
 51
359.9999999999995
  0
ARC
  5
8D2
330
1F
100
AcDbEntity
  8
0
  6
SLD-SOLID
 62
     5
100
AcDbCircle
 10
202.262804586726
 20
246.0791271327217
 30
0.0
 40
6.353900000000022
100
AcDbArc
 50
0.0
 51
90.0
  0
LINE
  5
8D3
330
1F
100
AcDbEntity
  8
0
 62
     5
100
AcDbLine
 10
208.616704586726
 20
246.0791271327217
 30
0.0
 11
208.6167088590884
 21
244.9226172384643
 31
0.0
  0
ARC
  5
8D4
330
1F
100
AcDbEntity
  8
0
  6
SLD-SOLID
 62
     5
100
AcDbCircle
 10
60.18910309668854
 20
247.9829951909986
 30
0.0
 40
6.3539
100
AcDbArc
 50
90.0
 51
180.0
  0
LINE
  5
8D5
330
1F
100
AcDbEntity
  8
0
 62
     5
100
AcDbLine
 10
60.18910309668854
 20
254.3368951909985
 30
0.0
 11
62.81170700477549
 21
254.3368951909985
 31
0.0
  0
LINE
  5
8D6
330
1F
100
AcDbEntity
  8
0
 62
     5
100
AcDbLine
 10
53.83519827280767
 20
230.6188383206877
 30
0.0
 11
53.83520309668853
 21
247.9829951909986
 31
0.0
  0
VIEWPORT
  5
DE
330
1B
100
AcDbEntity
 67
     1
  8
0
100
AcDbViewport
 10
0.0
 20
0.0
 30
0.0
 40
35.42539612676057
 41
13.546875
 68
     1
 69
     1
1001
ACAD
1000
MVIEW
1002
{
1070
    16
1010
0.0
1020
0.0
1030
0.0
1010
0.0
1020
0.0
1030
1.0
1040
0.0
1040
13.546875
1040
3.938179137323945
1040
4.071894366197183
1040
50.0
1040
0.0
1040
0.0
1070
    16
1070
   100
1070
     0
1070
     3
1070
     0
1070
     0
1070
     0
1070
     0
1040
0.0
1040
0.0
1040
0.0
1040
0.5
1040
0.5
1040
0.0
1040
0.0
1070
     0
1002
{
1002
}
1002
}
  0
VIEWPORT
  5
DF
330
1B
100
AcDbEntity
 67
     1
  8
0
100
AcDbViewport
 10
5.25
 20
3.5
 30
0.0
 40
8.4
 41
5.600000000000001
 68
     2
 69
     2
1001
ACAD
1000
MVIEW
1002
{
1070
    16
1010
0.0
1020
0.0
1030
0.0
1010
0.0
1020
0.0
1030
1.0
1040
0.0
1040
6.950002982586001
1040
7.9067586229
1040
5.70634482755
1040
50.0
1040
0.0
1040
0.0
1070
     0
1070
   100
1070
     0
1070
     3
1070
     0
1070
     0
1070
     0
1070
     0
1040
0.0
1040
0.0
1040
0.0
1040
0.5
1040
0.5
1040
0.0
1040
0.0
1070
     0
1002
{
1002
}
1002
}
  0
ENDSEC
  0
SECTION
  2
OBJECTS
  0
DICTIONARY
  5
C
330
0
100
AcDbDictionary
  3
ACAD_DETAILVIEWSTYLE
350
16C
  3
ACAD_GROUP
350
D
  3
ACAD_IMAGE_VARS
350
DD
  3
ACAD_MLINESTYLE
350
17
  3
ACAD_SCALELIST
350
421
  3
ACAD_SECTIONVIEWSTYLE
350
16D
  3
ACDBVARIABLEDICTIONARY
350
167
  3
ACSTSTANDARD
350
30B
  3
APPDATA
350
DB
  3
DWGPROPS
350
8D7
  0
DICTIONARY
  5
E1
330
2
100
AcDbDictionary
280
     1
  3
ACAD_LAYERSTATES
360
E2
  0
DICTIONARY
  5
16C
102
{ACAD_REACTORS
330
C
102
}
330
C
100
AcDbDictionary
  0
DICTIONARY
  5
D
102
{ACAD_REACTORS
330
C
102
}
330
C
100
AcDbDictionary
  0
RASTERVARIABLES
  5
DD
102
{ACAD_REACTORS
330
C
102
}
330
C
100
AcDbRasterVariables
 90
        0
 70
     1
 71
     1
 72
     0
  0
DICTIONARY
  5
17
102
{ACAD_REACTORS
330
C
102
}
330
C
100
AcDbDictionary
  3
STANDARD
350
18
  0
DICTIONARY
  5
421
102
{ACAD_REACTORS
330
C
102
}
330
C
100
AcDbDictionary
  0
DICTIONARY
  5
16D
102
{ACAD_REACTORS
330
C
102
}
330
C
100
AcDbDictionary
  0
DICTIONARY
  5
167
102
{ACAD_REACTORS
330
C
102
}
330
C
100
AcDbDictionary
  3
HPTRANSPARENCY
350
331
  0
DICTIONARY
  5
30B
102
{ACAD_REACTORS
330
C
102
}
330
C
100
AcDbDictionary
  0
DICTIONARY
  5
DB
102
{ACAD_REACTORS
330
C
102
}
330
C
100
AcDbDictionary
  0
XRECORD
  5
8D7
102
{ACAD_REACTORS
330
C
102
}
330
C
100
AcDbXrecord
  1
DWGPROPS COOKIE
  2

  3

  4

  6

  7

  8
Nick
  9

300
=
301
=
302
=
303
=
304
=
305
=
306
=
307
=
308
=
309
=
 40
0.0
 41
2457232.402271586
 42
2457402.058823345
  1

 90
        0
  0
DICTIONARY
  5
E2
102
{ACAD_REACTORS
330
E1
102
}
330
E1
100
AcDbDictionary
  0
MLINESTYLE
  5
18
102
{ACAD_REACTORS
330
17
102
}
330
17
100
AcDbMlineStyle
  2
Standard
 70
     0
  3

 62
   256
 51
90.0
 52
90.0
 71
     2
 49
0.5
 62
   256
  6
BYLAYER
 49
-0.5
 62
   256
  6
BYLAYER
  0
DICTIONARYVAR
  5
331
102
{ACAD_REACTORS
330
167
102
}
330
167
100
DictionaryVariables
280
     0
  1
ByLayer
  0
ENDSEC
  0
EOF
